<svg xmlns="http://www.w3.org/2000/svg" width="541" height="541" viewBox="0 0 541 541">
  <g id="Logo" transform="translate(-583 -382)">
    <g id="Rectangle_4" data-name="Rectangle 4" transform="translate(583 382)" fill="none" stroke="#980b8a" stroke-width="20">
      <rect width="541" height="541" stroke="none"/>
      <rect x="10" y="10" width="521" height="521" fill="none"/>
    </g>
    <g id="Group_3" data-name="Group 3" transform="translate(1 19)">
      <g id="Path_16" data-name="Path 16" transform="translate(636.655 633) rotate(-45)" fill="none" stroke-dasharray="10 20">
        <path d="M165,0A165,165,0,0,1,330,165H0A165,165,0,0,1,165,0Z" stroke="none"/>
        <path d="M 165 0 C 165.0243835449219 0 165.0484924316406 0 165.0728759765625 1.52587890625e-05 C 165.0839996337891 1.52587890625e-05 165.0877227783203 3.0517578125e-05 165.0988464355469 3.0517578125e-05 C 165.1146240234375 4.57763671875e-05 165.1302337646484 4.57763671875e-05 165.14599609375 6.103515625e-05 C 165.1571197509766 7.62939453125e-05 165.1643829345703 7.62939453125e-05 165.1755065917969 9.1552734375e-05 C 165.190673828125 0.0001068115234375 165.2062530517578 0.0001220703125 165.2214050292969 0.000152587890625 C 165.2325286865234 0.0001678466796875 165.2371215820313 0.0001678466796875 165.2482452392578 0.00018310546875 C 165.2642211914063 0.000213623046875 165.2804565429688 0.0002288818359375 165.2964324951172 0.0002593994140625 C 165.302001953125 0.000274658203125 165.3181457519531 0.00030517578125 165.3236999511719 0.0003204345703125 C 165.3402862548828 0.0003509521484375 165.35693359375 0.0003814697265625 165.3735198974609 0.0004119873046875 C 165.3846435546875 0.0004425048828125 165.3861389160156 0.0004425048828125 165.3972473144531 0.0004730224609375 C 165.4210052490234 0.000518798828125 165.4451751708984 0.000579833984375 165.4689331054688 0.0006561279296875 C 165.4744873046875 0.00067138671875 165.4823303222656 0.0006866455078125 165.4878845214844 0.000701904296875 C 165.5065155029297 0.000762939453125 165.5251159667969 0.000823974609375 165.5437469482422 0.000885009765625 C 165.54931640625 0.0009002685546875 165.5629272460938 0.000946044921875 165.5684814453125 0.0009613037109375 C 165.5840454101563 0.001007080078125 165.5997161865234 0.001068115234375 165.6152801513672 0.001129150390625 C 165.6263885498047 0.00115966796875 165.6358947753906 0.0012054443359375 165.6470184326172 0.001251220703125 C 165.6611328125 0.0012969970703125 165.6753692626953 0.0013580322265625 165.6894836425781 0.0014190673828125 C 165.7006072998047 0.00146484375 165.7088928222656 0.001495361328125 165.7200164794922 0.0015411376953125 C 165.7353668212891 0.0016021728515625 165.7505950927734 0.001678466796875 165.7659454345703 0.001739501953125 C 165.7770538330078 0.001800537109375 165.7820129394531 0.0018157958984375 165.7931365966797 0.001861572265625 C 165.8123626708984 0.001953125 165.83154296875 0.0020599365234375 165.8507690429688 0.0021514892578125 C 165.8563232421875 0.0021820068359375 165.8610687255859 0.002197265625 165.8666229248047 0.002227783203125 C 165.8901519775391 0.002349853515625 165.9138488769531 0.002471923828125 165.9373779296875 0.0026092529296875 C 165.948486328125 0.0026702880859375 165.9561309814453 0.002716064453125 165.9672393798828 0.002777099609375 C 165.9819641113281 0.00286865234375 165.9965667724609 0.0029449462890625 166.0113067626953 0.0030364990234375 C 166.0168609619141 0.0030670166015625 166.0350952148438 0.0031890869140625 166.0406494140625 0.0032196044921875 C 166.0557861328125 0.0033111572265625 166.0706634521484 0.0034027099609375 166.0858001708984 0.0034942626953125 C 166.0969085693359 0.003570556640625 166.1048736572266 0.003631591796875 166.1159820556641 0.003692626953125 C 166.1300964355469 0.0037841796875 166.1439514160156 0.0038909912109375 166.1580657958984 0.0039825439453125 C 166.1691741943359 0.004058837890625 166.1798095703125 0.0041351318359375 166.19091796875 0.00421142578125 C 166.2035980224609 0.004302978515625 166.2162322998047 0.00439453125 166.2289123535156 0.004486083984375 C 166.2400207519531 0.0045623779296875 166.2540435791016 0.004669189453125 166.2651519775391 0.0047454833984375 C 166.2815093994141 0.0048675537109375 166.2975311279297 0.0050048828125 166.3139038085938 0.005126953125 C 166.3305511474609 0.0052490234375 166.3473510742188 0.0053863525390625 166.364013671875 0.005523681640625 C 166.3779144287109 0.0056304931640625 166.3914947509766 0.0057525634765625 166.4053955078125 0.005859375 C 166.41650390625 0.005950927734375 166.4297637939453 0.006072998046875 166.4408569335938 0.00616455078125 C 166.453125 0.0062713623046875 166.4657745361328 0.006378173828125 166.4780426025391 0.0064849853515625 C 166.4891357421875 0.0065765380859375 166.5052185058594 0.0067291259765625 166.5163116455078 0.0068206787109375 C 166.5271453857422 0.006927490234375 166.5383453369141 0.00701904296875 166.5491790771484 0.0071258544921875 C 166.5602722167969 0.007232666015625 166.5774841308594 0.00738525390625 166.5885772705078 0.0074920654296875 C 166.5998229980469 0.007598876953125 166.6110687255859 0.0077056884765625 166.622314453125 0.0078125 C 166.6389617919922 0.0079803466796875 166.6453094482422 0.008026123046875 166.6619567871094 0.0081939697265625 C 166.6723937988281 0.00830078125 166.6825714111328 0.0084075927734375 166.6929931640625 0.008514404296875 C 166.7151947021484 0.00872802734375 166.7503814697266 0.00909423828125 166.7725830078125 0.0093231201171875 C 166.7817687988281 0.009429931640625 166.7910308837891 0.009521484375 166.8002319335938 0.009613037109375 C 166.8168640136719 0.009796142578125 166.8267059326172 0.0099029541015625 166.8433532714844 0.0100860595703125 C 166.8527526855469 0.01019287109375 166.8622589111328 0.0102996826171875 166.8716583251953 0.0103912353515625 C 166.8882904052734 0.010589599609375 166.8993225097656 0.010711669921875 166.9159545898438 0.010894775390625 C 166.9251556396484 0.0110015869140625 166.9342651367188 0.0111083984375 166.9434661865234 0.0112152099609375 C 166.9545593261719 0.0113372802734375 166.9753875732422 0.0115814208984375 166.9864807128906 0.01171875 C 166.99609375 0.0118255615234375 167.0062103271484 0.0119476318359375 167.0158233642578 0.0120697021484375 C 167.0324554443359 0.01226806640625 167.0424194335938 0.0123748779296875 167.0590515136719 0.0125885009765625 C 167.0680389404297 0.0126953125 167.0770721435547 0.0128021240234375 167.0860595703125 0.0129241943359375 C 167.1026916503906 0.01312255859375 167.1138763427734 0.0132598876953125 167.1305084228516 0.0134735107421875 C 167.137451171875 0.0135650634765625 167.1443634033203 0.0136566162109375 167.1513061523438 0.01373291015625 C 167.1845703125 0.01416015625 167.2193908691406 0.014617919921875 167.2526550292969 0.0150604248046875 C 167.2573547363281 0.0151214599609375 167.2624053955078 0.01519775390625 167.2671051025391 0.0152587890625 C 167.2837371826172 0.0154876708984375 167.2980194091797 0.0156707763671875 167.3146514892578 0.015899658203125 C 167.3226165771484 0.016021728515625 167.3304901123047 0.0161285400390625 167.3384552001953 0.0162353515625 C 167.3550872802734 0.0164642333984375 167.3690490722656 0.01666259765625 167.3856811523438 0.0168914794921875 C 167.3934326171875 0.0170135498046875 167.4012298583984 0.017120361328125 167.4089965820313 0.0172271728515625 C 167.4256286621094 0.0174713134765625 167.44189453125 0.0177001953125 167.4585266113281 0.0179443359375 C 167.4642486572266 0.018035888671875 167.4699249267578 0.0181121826171875 167.4756317138672 0.0182037353515625 C 167.4922637939453 0.0184478759765625 167.5145874023438 0.018768310546875 167.5312042236328 0.0190277099609375 C 167.5320281982422 0.0190277099609375 167.533203125 0.0190582275390625 167.5340270996094 0.0190582275390625 C 167.6005249023438 0.0200653076171875 167.6632995605469 0.0210418701171875 167.7297821044922 0.022125244140625 C 167.7303924560547 0.0221405029296875 167.7308959960938 0.0221405029296875 167.7315063476563 0.02215576171875 C 167.753662109375 0.0225067138671875 167.7682647705078 0.0227508544921875 167.7904357910156 0.0231170654296875 C 167.7940979003906 0.0231781005859375 167.7975769042969 0.0232391357421875 167.8012390136719 0.0233001708984375 C 167.8234100341797 0.0236663818359375 167.8375396728516 0.0239105224609375 167.8596954345703 0.0242767333984375 C 167.8629608154297 0.0243377685546875 167.8660278320313 0.0243988037109375 167.8692932128906 0.024444580078125 C 167.8914489746094 0.0248260498046875 167.9059295654297 0.0250701904296875 167.9280853271484 0.0254669189453125 C 167.9309387207031 0.0255126953125 167.9335632324219 0.0255584716796875 167.9364318847656 0.025604248046875 C 168.0250549316406 0.0271453857421875 168.1063079833984 0.02862548828125 168.1949005126953 0.0303192138671875 C 168.1955108642578 0.0303192138671875 168.1964111328125 0.0303497314453125 168.197021484375 0.0303497314453125 C 168.2191772460938 0.0307769775390625 168.2383422851563 0.0311431884765625 168.2604827880859 0.0315704345703125 C 168.2619018554688 0.0316009521484375 168.2630767822266 0.0316162109375 168.2645111083984 0.031646728515625 C 168.2866516113281 0.032073974609375 168.3060913085938 0.0324554443359375 168.3282318115234 0.03289794921875 C 168.3290405273438 0.0329132080078125 168.3302154541016 0.0329437255859375 168.3310241699219 0.032958984375 C 170.5674591064453 0.0772247314453125 172.7830963134766 0.1654510498046875 174.9968566894531 0.2978668212890625 L 173.2072143554688 30.24443054199219 C 170.4922180175781 30.08221435546875 167.7557067871094 30 165 30 L 165 0 C 165 0 165 0 165 0 Z M 194.840576171875 2.691436767578125 C 197.9682464599609 3.262786865234375 201.0597534179688 3.920928955078125 204.1231689453125 4.665969848632813 C 204.1273193359375 4.666976928710938 204.1316223144531 4.668014526367188 204.1357421875 4.669021606445313 C 204.1564483642578 4.674057006835938 204.1648559570313 4.676101684570313 204.185546875 4.681137084960938 C 204.1920471191406 4.682723999023438 204.1989440917969 4.684402465820313 204.2054443359375 4.685989379882813 C 204.2209625244141 4.689773559570313 204.2354736328125 4.693313598632813 204.2510070800781 4.697097778320313 C 204.2584838867188 4.698928833007813 204.2656860351563 4.70068359375 204.2731628417969 4.7025146484375 C 204.2990264892578 4.708831787109375 204.3263397216797 4.715499877929688 204.3522033691406 4.721832275390625 C 204.3618469238281 4.724197387695313 204.3716735839844 4.726593017578125 204.3813171386719 4.728958129882813 C 204.3916625976563 4.731491088867188 204.4044494628906 4.734619140625 204.4147796630859 4.737152099609375 C 204.4269714355469 4.740142822265625 204.4390716552734 4.74310302734375 204.4512634277344 4.746109008789063 C 204.4616088867188 4.748641967773438 204.472900390625 4.751419067382813 204.4832458496094 4.753952026367188 C 204.496826171875 4.757293701171875 204.5106506347656 4.76068115234375 204.5242309570313 4.764022827148438 C 204.5345764160156 4.766571044921875 204.5409545898438 4.76812744140625 204.5512847900391 4.770675659179688 C 204.5678100585938 4.774734497070313 204.5840454101563 4.77874755859375 204.6005859375 4.782806396484375 C 204.6057434082031 4.784088134765625 204.6109771728516 4.785369873046875 204.6161499023438 4.786651611328125 L 197.4375762939453 33.91514587402344 C 194.8045654296875 33.26622009277344 192.1411437988281 32.69471740722656 189.4497833251953 32.20314025878906 L 194.840576171875 2.691421508789063 Z M 223.6949157714844 10.74494934082031 C 224.6123962402344 11.09425354003906 225.5202026367188 11.44918823242188 226.4297485351563 11.81431579589844 C 226.433349609375 11.81575012207031 226.4370727539063 11.81724548339844 226.440673828125 11.81869506835938 C 226.4601135253906 11.82650756835938 226.4716186523438 11.83113098144531 226.4910888671875 11.83894348144531 C 226.4944763183594 11.84031677246094 226.4979858398438 11.84172058105469 226.5013732910156 11.84307861328125 C 226.5548706054688 11.86457824707031 226.6061706542969 11.88523864746094 226.6596374511719 11.90678405761719 C 226.6637878417969 11.90846252441406 226.6675415039063 11.90997314453125 226.6716918945313 11.91165161132813 C 226.686279296875 11.91752624511719 226.6974945068359 11.92205810546875 226.7120666503906 11.92793273925781 C 226.7201843261719 11.93121337890625 226.7286071777344 11.93461608886719 226.7367401123047 11.93789672851563 C 226.7464599609375 11.94181823730469 226.7647094726563 11.94918823242188 226.7744140625 11.95310974121094 C 226.7848052978516 11.95730590820313 226.7951354980469 11.96148681640625 226.8055114746094 11.96568298339844 C 226.8200988769531 11.97157287597656 226.8237915039063 11.97306823730469 226.8383636474609 11.97895812988281 C 226.8525238037109 11.98469543457031 226.8666381835938 11.99040222167969 226.8807983398438 11.99613952636719 C 226.8905029296875 12.00006103515625 226.8931884765625 12.00114440917969 226.9028930664063 12.00508117675781 C 226.9242248535156 12.01371765136719 226.9457702636719 12.0224609375 226.9671020507813 12.03109741210938 C 226.976806640625 12.0350341796875 226.9785919189453 12.0357666015625 226.9883117675781 12.03970336914063 C 227.0037841796875 12.04597473144531 227.0194549560547 12.05233764648438 227.034912109375 12.05862426757813 C 227.0446319580078 12.06256103515625 227.0473785400391 12.06367492675781 227.0570983886719 12.067626953125 C 227.0736999511719 12.07437133789063 227.0900268554688 12.08100891113281 227.1066284179688 12.08775329589844 C 227.1114807128906 12.0897216796875 227.1183776855469 12.092529296875 227.1232299804688 12.09449768066406 C 227.14453125 12.10316467285156 227.1660766601563 12.1119384765625 227.1873931884766 12.12062072753906 C 227.1873931884766 12.12062072753906 227.1905212402344 12.12188720703125 227.1905212402344 12.12188720703125 C 227.2140808105469 12.13148498535156 227.2379302978516 12.14120483398438 227.2614898681641 12.15080261230469 C 227.2614898681641 12.15080261230469 227.26513671875 12.15229797363281 227.26513671875 12.15229797363281 C 227.2873840332031 12.16136169433594 227.3099060058594 12.17054748535156 227.3321380615234 12.17964172363281 C 227.3369903564453 12.18161010742188 227.3330383300781 12.18000793457031 227.337890625 12.18199157714844 C 227.3607025146484 12.19129943847656 227.3838500976563 12.20075988769531 227.4066467285156 12.21006774902344 C 227.4066467285156 12.21006774902344 227.407470703125 12.21041870117188 227.407470703125 12.21041870117188 C 229.264404296875 12.96969604492188 231.1046905517578 13.76194763183594 232.9270629882813 14.58621215820313 L 220.5636444091797 41.92014312744141 C 218.0882873535156 40.80049896240234 215.5730743408203 39.75342559814453 213.0207214355469 38.78171539306641 L 223.6949310302734 10.74493408203125 Z M 250.6041412353516 23.91535949707031 C 251.361328125 24.37576293945313 252.1145324707031 24.84210205078125 252.8636474609375 25.31430053710938 C 252.8680267333984 25.31706237792969 252.8609313964844 25.31257629394531 252.8652954101563 25.31533813476563 C 252.9307556152344 25.35658264160156 252.9960021972656 25.39778137207031 253.0613708496094 25.43911743164063 C 253.0657501220703 25.44189453125 253.0607604980469 25.43873596191406 253.0651245117188 25.44149780273438 C 253.0847473144531 25.45390319824219 253.1043090820313 25.46627807617188 253.1239166259766 25.47869873046875 C 253.1282958984375 25.48146057128906 253.1280670166016 25.4813232421875 253.1324462890625 25.48408508300781 C 253.1745910644531 25.51075744628906 253.2166290283203 25.53739929199219 253.2587432861328 25.56411743164063 C 253.2631225585938 25.56689453125 253.2639312744141 25.56741333007813 253.268310546875 25.5701904296875 C 253.2858276367188 25.58131408691406 253.3033752441406 25.59243774414063 253.3209075927734 25.60356140136719 C 253.3252868652344 25.60633850097656 253.3307037353516 25.60978698730469 253.3350830078125 25.61256408691406 C 253.3508911132813 25.62260437011719 253.3670043945313 25.63284301757813 253.3828125 25.64288330078125 C 253.3871765136719 25.64566040039063 253.3943786621094 25.65023803710938 253.3987426757813 25.65303039550781 C 253.4172973632813 25.66481018066406 253.435546875 25.67640686035156 253.4540710449219 25.68821716308594 C 253.4584503173828 25.69099426269531 253.4555206298828 25.68913269042969 253.4598999023438 25.69190979003906 C 253.4797973632813 25.70457458496094 253.4997253417969 25.71725463867188 253.5196228027344 25.72993469238281 C 253.5283660888672 25.73550415039063 253.5328063964844 25.73832702636719 253.5415344238281 25.743896484375 C 253.5540771484375 25.75187683105469 253.5663146972656 25.75967407226563 253.5788269042969 25.76766967773438 C 253.5875701904297 25.77323913574219 253.5954895019531 25.77828979492188 253.6042175292969 25.78385925292969 C 253.6158905029297 25.79130554199219 253.6275329589844 25.79872131347656 253.6391906738281 25.80616760253906 C 253.6479187011719 25.81173706054688 253.6572113037109 25.81765747070313 253.6659393310547 25.8232421875 C 253.6781311035156 25.83100891113281 253.6901092529297 25.83866882324219 253.7022857666016 25.84645080566406 C 253.7197418212891 25.85758972167969 253.7307434082031 25.8646240234375 253.7481842041016 25.87577819824219 C 253.7581176757813 25.88212585449219 253.7683563232422 25.888671875 253.7783050537109 25.89503479003906 C 253.7913818359375 25.90339660644531 253.7997283935547 25.90873718261719 253.8128051757813 25.9171142578125 C 253.8212127685547 25.9224853515625 253.8296813964844 25.92790222167969 253.8380737304688 25.93328857421875 C 253.8468017578125 25.93885803222656 253.8623504638672 25.94882202148438 253.8710632324219 25.95440673828125 C 253.8798065185547 25.96000671386719 253.888427734375 25.96551513671875 253.8971557617188 25.97111511230469 C 253.9102478027344 25.9794921875 253.9165344238281 25.9835205078125 253.9295959472656 25.99191284179688 C 253.9381713867188 25.99740600585938 253.9466705322266 26.00285339355469 253.9552307128906 26.00834655761719 C 253.9813842773438 26.02511596679688 254.0060119628906 26.04092407226563 254.0321655273438 26.05770874023438 C 254.0343933105469 26.05914306640625 254.0363464355469 26.06039428710938 254.0385589599609 26.06181335449219 C 254.0516357421875 26.07022094726563 254.0701446533203 26.08210754394531 254.0832061767578 26.09049987792969 C 254.0869750976563 26.09292602539063 254.0909118652344 26.095458984375 254.0946807861328 26.09786987304688 C 254.1121063232422 26.10906982421875 254.1199340820313 26.11410522460938 254.1373596191406 26.12530517578125 C 254.1419677734375 26.12828063964844 254.1463317871094 26.13108825683594 254.1509399414063 26.13404846191406 C 254.2162475585938 26.17607116699219 254.2846527099609 26.22013854980469 254.3498992919922 26.26225280761719 C 254.3507537841797 26.26280212402344 254.3515625 26.26332092285156 254.3524169921875 26.26387023925781 C 255.9139709472656 27.27165222167969 257.4613647460938 28.307861328125 258.9861145019531 29.3663330078125 L 241.8775024414063 54.00971221923828 C 239.6392211914063 52.45571136474609 237.3516540527344 50.96771240234375 235.0176391601563 49.54856872558594 L 250.6041412353516 23.91535949707031 Z M 274.6875610351563 41.73521423339844 C 277.177490234375 43.95249938964844 279.5997924804688 46.24400329589844 281.9509887695313 48.60643005371094 L 260.6875 69.76921081542969 C 258.76123046875 67.83371734619141 256.7766418457031 65.95628356933594 254.7366333007813 64.13964080810547 L 274.6875610351563 41.73521423339844 Z M 295.1725463867188 63.59700775146484 C 297.2205200195313 66.22214508056641 299.1926879882813 68.91393280029297 301.0818481445313 71.66272735595703 L 276.3572082519531 88.65364074707031 C 274.8098449707031 86.40206909179688 273.1960754394531 84.19971466064453 271.5186462402344 82.04943084716797 L 295.1725769042969 63.59700012207031 Z M 311.3843994140625 88.79108428955078 C 312.1134338378906 90.18851470947266 312.8193664550781 91.59032440185547 313.5092163085938 93.01088714599609 C 313.5103759765625 93.01325988769531 313.5115356445313 93.01569366455078 313.5126953125 93.01807403564453 C 313.5218200683594 93.03682708740234 313.52734375 93.04825592041016 313.5364685058594 93.06700897216797 C 313.5384216308594 93.07103729248047 313.5403747558594 93.07508087158203 313.5423278808594 93.07910919189453 C 313.5491333007813 93.09317779541016 313.5586853027344 93.11283111572266 313.5654907226563 93.12689971923828 C 313.566650390625 93.12928009033203 313.5675964355469 93.13121795654297 313.5687255859375 93.13359069824219 C 313.5846557617188 93.16642761230469 313.5980834960938 93.19419860839844 313.6139831542969 93.22704315185547 C 313.6163940429688 93.23198699951172 313.6189880371094 93.23736572265625 313.6213684082031 93.2423095703125 C 313.628173828125 93.25638580322266 313.6328735351563 93.26609802246094 313.6396789550781 93.28017425537109 C 313.6440124511719 93.28914642333984 313.6482238769531 93.29783630371094 313.6525573730469 93.30681610107422 C 313.6571044921875 93.31620025634766 313.664306640625 93.33114624023438 313.6688537597656 93.34053802490234 C 313.6742553710938 93.35171508789063 313.6796569824219 93.36293029785156 313.68505859375 93.37410736083984 C 313.6918640136719 93.38819122314453 313.6921691894531 93.38885498046875 313.698974609375 93.40293884277344 C 313.7084350585938 93.42254638671875 313.7178344726563 93.44207000732422 313.727294921875 93.46168518066406 C 313.727294921875 93.46168518066406 313.7288818359375 93.46495819091797 313.7288818359375 93.46495819091797 C 313.7391967773438 93.48640441894531 313.749755859375 93.50834655761719 313.7601013183594 93.52980041503906 C 313.7623596191406 93.53449249267578 313.76611328125 93.54228973388672 313.7683715820313 93.54698944091797 C 313.7764892578125 93.56385803222656 313.7847900390625 93.58116149902344 313.7929077148438 93.59803009033203 C 313.795166015625 93.60272979736328 313.7978820800781 93.60837554931641 313.8001403808594 93.61307525634766 C 313.8091430664063 93.63178253173828 313.8181762695313 93.65060424804688 313.8271484375 93.6693115234375 C 313.8294067382813 93.67401123046875 313.8294677734375 93.67411041259766 313.8317260742188 93.67881011962891 C 314.4397888183594 94.94542694091797 315.0321655273438 96.22101593017578 315.6086120605469 97.50528717041016 C 315.6086120605469 97.50528717041016 315.6105346679688 97.50955200195313 315.6105346679688 97.50955200195313 C 315.61962890625 97.52982330322266 315.6288452148438 97.5504150390625 315.637939453125 97.57069396972656 C 315.6400756835938 97.57546234130859 315.6434020996094 97.58287048339844 315.6455383300781 97.58763885498047 C 315.6526184082031 97.60345458984375 315.65966796875 97.61914825439453 315.666748046875 97.63496398925781 C 315.6688842773438 97.63973236083984 315.6750793457031 97.65355682373047 315.6771850585938 97.6583251953125 C 315.6834411621094 97.67227935791016 315.6896057128906 97.68605041503906 315.6958618164063 97.70000457763672 C 315.7001037597656 97.70954895019531 315.702880859375 97.71574401855469 315.7071533203125 97.72528076171875 C 315.7158203125 97.74464416503906 315.7242431640625 97.76351928710938 315.7328796386719 97.78288269042969 C 315.7350158691406 97.78765106201172 315.73486328125 97.78730010986328 315.7369995117188 97.79207611083984 L 288.343994140625 110.0240707397461 C 287.2305603027344 107.5307159423828 286.043701171875 105.0773620605469 284.7861328125 102.6667175292969 L 311.3844299316406 88.79106903076172 Z M 322.7586975097656 116.5060729980469 C 322.861083984375 116.839599609375 322.9634094238281 117.1766510009766 323.0637512207031 117.5110778808594 C 323.0637817382813 117.5112686157227 323.0639953613281 117.5119781494141 323.0640563964844 117.5121688842773 C 323.0868530273438 117.5881729125977 323.1109008789063 117.6684722900391 323.1335754394531 117.7445297241211 C 323.1349182128906 117.7490005493164 323.1361999511719 117.7532958984375 323.1375427246094 117.7577667236328 C 323.14208984375 117.7729797363281 323.1461791992188 117.7867584228516 323.1507263183594 117.8019714355469 C 323.1531372070313 117.8101348876953 323.1554260253906 117.8178024291992 323.1578674316406 117.8259735107422 C 323.160888671875 117.8361053466797 323.1668395996094 117.8561630249023 323.1698608398438 117.8663024902344 C 323.1728210449219 117.876220703125 323.1758422851563 117.8863906860352 323.1788024902344 117.8963088989258 C 323.1833190917969 117.9115295410156 323.1851501464844 117.9176940917969 323.1896667480469 117.9329147338867 C 323.1934204101563 117.945556640625 323.1972045898438 117.9582443237305 323.2009582519531 117.9708862304688 C 323.2054748535156 117.9861068725586 323.2093811035156 117.9992904663086 323.2138977050781 118.0145111083984 C 323.2188415527344 118.0312423706055 323.2238159179688 118.0480041503906 323.2287902832031 118.0647430419922 C 323.2317810058594 118.0748901367188 323.2332458496094 118.0798416137695 323.2362670898438 118.0899887084961 C 323.2407531738281 118.1051635742188 323.2452697753906 118.1204376220703 323.249755859375 118.135612487793 C 323.2527465820313 118.1457672119141 323.2539367675781 118.1497344970703 323.2569274902344 118.1598892211914 C 323.2616577148438 118.1758422851563 323.2662963867188 118.1916351318359 323.2710266113281 118.2075958251953 C 323.2725219726563 118.2126770019531 323.2758178710938 118.223876953125 323.2773132324219 118.2289581298828 C 323.2833557128906 118.2493896484375 323.289306640625 118.2696304321289 323.2953491210938 118.2900695800781 C 323.2968444824219 118.2951507568359 323.2959594726563 118.2922134399414 323.2974548339844 118.2972869873047 C 323.3117980957031 118.3459625244141 323.3260498046875 118.3943862915039 323.34033203125 118.4430770874023 C 323.3418273925781 118.4481582641602 323.3407592773438 118.4445571899414 323.3422546386719 118.4496383666992 C 323.3488464355469 118.4720306396484 323.35546875 118.4946975708008 323.362060546875 118.5170974731445 C 323.362060546875 118.5170974731445 323.36376953125 118.5230178833008 323.36376953125 118.5230178833008 C 323.9625854492188 120.5667114257813 324.5228881835938 122.6268310546875 325.0439147949219 124.7026062011719 C 325.0439147949219 124.7026062011719 325.0443115234375 124.7041549682617 325.0443115234375 124.7041549682617 C 325.0500793457031 124.7271118164063 325.0558471679688 124.7501831054688 325.0616149902344 124.7731399536133 C 325.0628967285156 124.7783050537109 325.0638427734375 124.7821044921875 325.0651550292969 124.7872619628906 C 325.0698852539063 124.8062591552734 325.0746459960938 124.8252716064453 325.0794067382813 124.8442840576172 C 325.0806884765625 124.8494415283203 325.0826110839844 124.8571014404297 325.0838928222656 124.8622665405273 C 325.0885620117188 124.8808746337891 325.0931396484375 124.8992614746094 325.0977783203125 124.9178771972656 C 325.0990905761719 124.9230346679688 325.1007080078125 124.9295349121094 325.1019897460938 124.934700012207 C 325.1077270507813 124.9576644897461 325.1134033203125 124.9804840087891 325.119140625 125.0034484863281 C 325.1217041015625 125.0137786865234 325.12255859375 125.0173034667969 325.1251525878906 125.0276336669922 C 325.1287841796875 125.0422897338867 325.1323852539063 125.0568084716797 325.1360473632813 125.0714569091797 C 325.1386108398438 125.081787109375 325.1416931152344 125.0941925048828 325.1442565917969 125.1045227050781 C 325.1472473144531 125.1166076660156 325.1501770019531 125.1284332275391 325.1531982421875 125.1405181884766 C 325.15576171875 125.1508483886719 325.1594848632813 125.1658630371094 325.1620483398438 125.1761932373047 C 325.1646423339844 125.1866912841797 325.1672973632813 125.1974411010742 325.1698913574219 125.2079391479492 C 325.1737365722656 125.2234344482422 325.1754760742188 125.2304916381836 325.1793212890625 125.2459945678711 C 325.1811828613281 125.2535247802734 325.1830749511719 125.2611312866211 325.1849365234375 125.2686614990234 C 325.1976928710938 125.3203353881836 325.2111206054688 125.3747863769531 325.2238464355469 125.4264755249023 C 325.2249145507813 125.4308319091797 325.2260131835938 125.435302734375 325.2271118164063 125.4396591186523 C 325.232177734375 125.4603424072266 325.2352600097656 125.4728012084961 325.2403259277344 125.4934844970703 C 325.2410583496094 125.4964599609375 325.2417297363281 125.4991760253906 325.2424621582031 125.5021514892578 C 325.2958068847656 125.7192993164063 325.3475036621094 125.9315948486328 325.3999938964844 126.1490783691406 L 296.2373657226563 133.1875 C 295.5960693359375 130.5305023193359 294.8760681152344 127.9041442871094 294.0799255371094 125.3111419677734 L 322.7587280273438 116.5060729980469 Z M 309.2116394042969 135 L 319.2116394042969 135 L 319.2116394042969 146.9490661621094 L 328.8981323242188 145.8282165527344 C 329.0042419433594 146.7453002929688 329.1023864746094 147.6601257324219 329.1933898925781 148.5817260742188 C 329.1935729980469 148.5833435058594 329.1937255859375 148.5848999023438 329.1938781738281 148.5865173339844 C 329.1960144042969 148.6082000732422 329.197509765625 148.6232299804688 329.1996154785156 148.6449127197266 C 329.1999816894531 148.6485443115234 329.2003479003906 148.6522064208984 329.2007141113281 148.6558532714844 C 329.2028503417969 148.6775360107422 329.2043151855469 148.6925354003906 329.2064208984375 148.7142181396484 C 329.20654296875 148.7152252197266 329.2066345214844 148.7161102294922 329.2067260742188 148.7171173095703 C 329.2146911621094 148.7984619140625 329.2231140136719 148.8851013183594 329.23095703125 148.9664611816406 C 329.2313537597656 148.970703125 329.2317810058594 148.9750213623047 329.232177734375 148.9792633056641 C 329.2337646484375 148.9955291748047 329.2356872558594 149.0155181884766 329.2372436523438 149.0317993164063 C 329.23779296875 149.0374603271484 329.2383117675781 149.0431060791016 329.2388610839844 149.0487670898438 C 329.2404174804688 149.0650482177734 329.2422790527344 149.084228515625 329.2438354492188 149.1005096435547 C 329.2443542480469 149.1061706542969 329.2449035644531 149.1116485595703 329.2454223632813 149.1172943115234 C 329.2469787597656 149.1335754394531 329.2488403320313 149.1529998779297 329.2503967285156 149.1692810058594 C 329.2506713867188 149.1723022460938 329.2510070800781 149.1756896972656 329.2512817382813 149.1787261962891 C 329.2569580078125 149.2384185791016 329.262451171875 149.2964782714844 329.26806640625 149.3561859130859 C 329.2684631347656 149.3604278564453 329.2688903808594 149.3650360107422 329.269287109375 149.3692779541016 C 329.2708435058594 149.3855590820313 329.2725524902344 149.4038238525391 329.2740783691406 149.4201049804688 C 329.2747192382813 149.4269866943359 329.2753295898438 149.4337310791016 329.2760009765625 149.4406127929688 C 329.2774963378906 149.4568939208984 329.2790832519531 149.4738311767578 329.2806091308594 149.4901275634766 C 329.2811279296875 149.4955749511719 329.2816772460938 149.5015869140625 329.2821960449219 149.5070343017578 C 329.28369140625 149.5233306884766 329.28564453125 149.5441589355469 329.2871398925781 149.5604553222656 C 329.2873840332031 149.5628814697266 329.2875671386719 149.5650177001953 329.2878112792969 149.5674591064453 C 329.2933349609375 149.6271820068359 329.2984619140625 149.6826477050781 329.3039245605469 149.7424011230469 C 329.3045043945313 149.7486724853516 329.3050842285156 149.7549285888672 329.3056640625 149.7611999511719 C 329.3071594238281 149.7774963378906 329.3084411621094 149.7916259765625 329.3099365234375 149.8079223632813 C 329.3106689453125 149.8160095214844 329.3114013671875 149.8238677978516 329.3121337890625 149.8319702148438 C 329.3131103515625 149.8428344726563 329.3153686523438 149.8674774169922 329.3163452148438 149.8783416748047 C 329.3170471191406 149.88623046875 329.3177795410156 149.8942108154297 329.3185119628906 149.9021148681641 C 329.3199768066406 149.9184112548828 329.3211364746094 149.9312896728516 329.3226318359375 149.9476013183594 C 329.3233032226563 149.955078125 329.3239440917969 149.9622039794922 329.3246154785156 149.9696960449219 C 329.3295288085938 150.0240325927734 329.3348388671875 150.0833435058594 329.3396911621094 150.1376953125 C 329.340087890625 150.1419525146484 329.3404541015625 150.1462249755859 329.3408508300781 150.1504821777344 C 329.34228515625 150.1667938232422 329.3437194824219 150.1828918457031 329.3451843261719 150.1992034912109 C 329.3458557128906 150.2068939208984 329.3465270996094 150.2143859863281 329.3472290039063 150.2220764160156 C 329.3481750488281 150.2329559326172 329.3505249023438 150.2593536376953 329.3514709472656 150.2702331542969 C 329.35205078125 150.2765045166016 329.3526000976563 150.2827911376953 329.3531494140625 150.2890625 C 329.3545837402344 150.3053894042969 329.3562927246094 150.3245697021484 329.3577270507813 150.3408813476563 C 329.3580932617188 150.3451385498047 329.3584594726563 150.3494415283203 329.3588562011719 150.3536987304688 C 329.3655395507813 150.4298248291016 329.3734130859375 150.52001953125 329.3800048828125 150.5961761474609 C 329.38037109375 150.6006317138672 329.3807678222656 150.6050567626953 329.3811340332031 150.6095123291016 C 329.3830261230469 150.6312713623047 329.3838806152344 150.6413269042969 329.3857727050781 150.6630859375 C 329.3861999511719 150.6681518554688 329.3866577148438 150.6736297607422 329.3871154785156 150.6786956787109 C 329.3885192871094 150.6950073242188 329.3902282714844 150.71484375 329.3916015625 150.7311706542969 C 329.3920288085938 150.7360382080078 329.3924560546875 150.7409820556641 329.3928527832031 150.7458343505859 C 329.3993835449219 150.822021484375 329.4069519042969 150.9113464355469 329.4133605957031 150.987548828125 C 329.4137573242188 150.9920196533203 329.4141235351563 150.996337890625 329.4144897460938 151.0008087158203 C 329.4163208007813 151.0225830078125 329.417236328125 151.0336456298828 329.4190673828125 151.0554351806641 C 329.41943359375 151.0596923828125 329.4197692871094 151.0638732910156 329.4201354980469 151.0681304931641 C 329.4219360351563 151.0899047851563 329.4230346679688 151.1028900146484 329.4248352050781 151.1246643066406 C 329.4250793457031 151.1275024414063 329.4253540039063 151.130859375 329.4255981445313 151.1336975097656 C 329.4346618652344 151.2425994873047 329.4429626464844 151.3435516357422 329.4518127441406 151.4525146484375 C 329.451904296875 151.4537353515625 329.4519958496094 151.4546508789063 329.4520874023438 151.4558715820313 C 329.453857421875 151.4776611328125 329.455322265625 151.4958343505859 329.4570922851563 151.5176239013672 C 329.4572448730469 151.5194549560547 329.4573974609375 151.5214080810547 329.4575500488281 151.5232238769531 C 329.5720825195313 152.9398345947266 329.6688232421875 154.3643646240234 329.7473449707031 155.7908630371094 L 319.2116394042969 156.3704681396484 L 319.2116394042969 165 C 319.2116394042969 165 309.2116394042969 165 309.2116394042969 165 L 309.2116394042969 156.9206085205078 L 299.7926330566406 157.4387817382813 C 299.6417236328125 154.6954345703125 299.4090576171875 151.9739227294922 299.0969848632813 149.2765655517578 L 309.2116394042969 148.1061859130859 L 309.2116394042969 135 Z M 279.2116394042969 135 L 289.2116394042969 135 L 289.2116394042969 165 C 289.2116394042969 165 279.2116394042969 165 279.2116394042969 165 L 279.2116394042969 135 Z M 249.2116394042969 135 L 259.2116394042969 135 L 259.2116394042969 165 C 259.2116394042969 165 249.2116394042969 165 249.2116394042969 165 L 249.2116394042969 135 Z M 219.2116394042969 135 L 229.2116394042969 135 L 229.2116394042969 165 C 229.2116394042969 165 219.2116394042969 165 219.2116394042969 165 L 219.2116394042969 135 Z M 189.2116394042969 135 L 199.2116394042969 135 L 199.2116394042969 165 C 199.2116394042969 165 189.2116394042969 165 189.2116394042969 165 L 189.2116394042969 135 Z M 159.2116394042969 135 L 169.2116394042969 135 L 169.2116394042969 165 C 169.2116394042969 165 159.2116394042969 165 159.2116394042969 165 L 159.2116394042969 135 Z M 129.2116394042969 135 L 139.2116394042969 135 L 139.2116394042969 165 C 139.2116394042969 165 129.2116394042969 165 129.2116394042969 165 L 129.2116394042969 135 Z M 99.21163940429688 135 L 109.2116394042969 135 L 109.2116394042969 165 C 109.2116394042969 165 99.21163940429688 165 99.21163940429688 165 L 99.21163940429688 135 Z M 69.21163940429688 135 L 79.21163940429688 135 L 79.21163940429688 165 C 79.21163940429688 165 69.21163940429688 165 69.21163940429688 165 L 69.21163940429688 135 Z M 39.21163940429688 135 L 49.21163940429688 135 L 49.21163940429688 165 C 49.21163940429688 165 39.21163940429688 165 39.21163940429688 165 L 39.21163940429688 135 Z M 9.211639404296875 135 L 19.21163940429688 135 L 19.21163940429688 146.5110778808594 L 31.05734252929688 147.9963531494141 C 30.71963500976563 150.6896362304688 30.46127319335938 153.4075775146484 30.28448486328125 156.1477203369141 L 19.21163940429688 155.4334106445313 L 19.21163940429688 165 C 19.21163940429688 165 9.211639404296875 165 9.211639404296875 165 L 9.211639404296875 154.7882995605469 L 0.346710205078125 154.2164306640625 C 0.44732666015625 152.6566772460938 0.568817138671875 151.1127319335938 0.71240234375 149.5650787353516 C 0.712615966796875 149.5630645751953 0.7127685546875 149.5612487792969 0.71295166015625 149.5592193603516 C 0.7149658203125 149.5374908447266 0.716461181640625 149.5215606689453 0.718475341796875 149.4998474121094 C 0.71875 149.4968109130859 0.719024658203125 149.494140625 0.71929931640625 149.4911041259766 C 0.7213134765625 149.4693908691406 0.72271728515625 149.4545440673828 0.7247314453125 149.4328308105469 C 0.724945068359375 149.4306030273438 0.725189208984375 149.4279022216797 0.72540283203125 149.4256744384766 C 0.73150634765625 149.3605346679688 0.73663330078125 149.30615234375 0.7427978515625 149.2410278320313 C 0.743011474609375 149.2388000488281 0.743194580078125 149.2370147705078 0.743377685546875 149.2347869873047 C 0.74493408203125 149.218505859375 0.746490478515625 149.2020874023438 0.748046875 149.1858062744141 C 0.748809814453125 149.1777038574219 0.749603271484375 149.1694793701172 0.7503662109375 149.161376953125 C 0.75140380859375 149.1505279541016 0.753570556640625 149.1278991699219 0.754608154296875 149.1170501708984 C 0.75543212890625 149.1083374023438 0.7562255859375 149.1000213623047 0.757049560546875 149.0913238525391 C 0.75860595703125 149.0750427246094 0.759735107421875 149.0632934570313 0.76129150390625 149.0470275878906 C 0.762176513671875 149.0377044677734 0.763092041015625 149.0282745361328 0.764007568359375 149.0189666748047 C 0.76556396484375 149.002685546875 0.76641845703125 148.9936218261719 0.76800537109375 148.9773406982422 C 0.769500732421875 148.9617614746094 0.770965576171875 148.9467163085938 0.7724609375 148.9311218261719 C 0.774017333984375 148.9148559570313 0.77569580078125 148.8976135253906 0.77728271484375 148.88134765625 C 0.77862548828125 148.8673706054688 0.779998779296875 148.8532867431641 0.781341552734375 148.8393249511719 C 0.78240966796875 148.8284759521484 0.783416748046875 148.8182830810547 0.784454345703125 148.8074340820313 C 0.785797119140625 148.7936706542969 0.787109375 148.7803649902344 0.7884521484375 148.7666168212891 C 0.78948974609375 148.7557678222656 0.79058837890625 148.7445220947266 0.791656494140625 148.7336730957031 C 0.792999267578125 148.7201232910156 0.794342041015625 148.7063751220703 0.795654296875 148.6928253173828 C 0.796722412109375 148.6819763183594 0.797454833984375 148.6746673583984 0.79852294921875 148.663818359375 C 0.80010986328125 148.6474304199219 0.8017578125 148.6309509277344 0.8033447265625 148.6145629882813 C 0.804443359375 148.6037292480469 0.8045654296875 148.6023559570313 0.805633544921875 148.5915069580078 C 0.8104248046875 148.5429534912109 0.81524658203125 148.4944915771484 0.820068359375 148.4459533691406 C 0.82061767578125 148.4405364990234 0.821136474609375 148.4352264404297 0.821685791015625 148.4298095703125 C 0.8236083984375 148.410400390625 0.8255615234375 148.3909912109375 0.827484130859375 148.37158203125 C 0.828033447265625 148.3661499023438 0.82879638671875 148.3586578369141 0.829345703125 148.3532409667969 C 0.831207275390625 148.3344268798828 0.8331298828125 148.3154907226563 0.83502197265625 148.2966918945313 C 0.835540771484375 148.291259765625 0.836212158203125 148.2845611572266 0.836761474609375 148.2791442871094 C 0.839019775390625 148.2569122314453 0.841278076171875 148.2345123291016 0.843505859375 148.2122650146484 C 0.843505859375 148.2122650146484 0.843994140625 148.2075958251953 0.843994140625 148.2075958251953 C 0.84912109375 148.1566619873047 0.854339599609375 148.1053771972656 0.859527587890625 148.054443359375 C 0.859527587890625 148.054443359375 0.859954833984375 148.0503845214844 0.859954833984375 148.0503845214844 C 0.862274169921875 148.0275421142578 0.8646240234375 148.0047912597656 0.866943359375 147.9819488525391 C 0.86749267578125 147.9765319824219 0.8680419921875 147.9714660644531 0.86859130859375 147.9660491943359 C 0.870635986328125 147.946044921875 0.872650146484375 147.9264526367188 0.87469482421875 147.9064636230469 C 0.875274658203125 147.9010467529297 0.8756103515625 147.8976440429688 0.87615966796875 147.8922424316406 C 0.87841796875 147.8704223632813 0.880645751953125 147.8489379882813 0.882904052734375 147.8271179199219 C 0.882904052734375 147.8271179199219 0.883819580078125 147.8181304931641 0.883819580078125 147.8181304931641 C 0.8917236328125 147.7417755126953 0.899627685546875 147.6657867431641 0.90765380859375 147.5894622802734 C 0.90765380859375 147.5894622802734 0.908050537109375 147.5856781005859 0.908050537109375 147.5856781005859 C 0.9105224609375 147.5620574951172 0.91302490234375 147.5381622314453 0.91552734375 147.5145416259766 C 0.91552734375 147.5145416259766 0.916290283203125 147.5071105957031 0.916290283203125 147.5071105957031 C 0.9188232421875 147.4830932617188 0.921356201171875 147.4590911865234 0.923919677734375 147.4350738525391 C 0.923919677734375 147.4350738525391 0.924224853515625 147.4320983886719 0.924224853515625 147.4320983886719 C 0.932342529296875 147.3553924560547 0.940521240234375 147.278564453125 0.948760986328125 147.2018890380859 C 0.948760986328125 147.2018890380859 0.94915771484375 147.1979370117188 0.94915771484375 147.1979370117188 C 0.951751708984375 147.1739349365234 0.954315185546875 147.1500854492188 0.9569091796875 147.1260681152344 C 0.9569091796875 147.1260681152344 0.95751953125 147.1202087402344 0.95751953125 147.1202087402344 C 0.960052490234375 147.0968017578125 0.96258544921875 147.0732421875 0.965118408203125 147.0498504638672 C 0.965118408203125 147.0498504638672 0.965850830078125 147.0432739257813 0.965850830078125 147.0432739257813 C 0.97406005859375 146.9672241210938 0.98236083984375 146.8909606933594 0.990692138671875 146.81494140625 C 0.990692138671875 146.81494140625 0.991302490234375 146.8093872070313 0.991302490234375 146.8093872070313 C 0.9937744140625 146.7870025634766 0.9962158203125 146.7648773193359 0.9986572265625 146.7425079345703 C 0.999267578125 146.7370910644531 0.999603271484375 146.7339172363281 1.000213623046875 146.728515625 C 1.0025634765625 146.7071533203125 1.004913330078125 146.6857147216797 1.007293701171875 146.6643371582031 C 1.00787353515625 146.658935546875 1.0076904296875 146.6605682373047 1.00830078125 146.6551666259766 C 1.016632080078125 146.5797729492188 1.02496337890625 146.5049438476563 1.033416748046875 146.4295806884766 C 1.034027099609375 146.4241790771484 1.034149169921875 146.4230194091797 1.034759521484375 146.4176177978516 C 1.03704833984375 146.3970642089844 1.03936767578125 146.3765563964844 1.041656494140625 146.3560028076172 C 1.042266845703125 146.3506011962891 1.04278564453125 146.3459777832031 1.04339599609375 146.340576171875 C 1.045623779296875 146.3208312988281 1.047882080078125 146.3007659912109 1.05010986328125 146.2810211181641 C 1.05072021484375 146.2756195068359 1.051300048828125 146.2705688476563 1.051910400390625 146.2651672363281 C 1.054290771484375 146.2442321777344 1.05670166015625 146.2227478027344 1.05908203125 146.2017974853516 C 1.05908203125 146.2017974853516 1.060211181640625 146.1919555664063 1.060211181640625 146.1919555664063 C 1.06585693359375 146.1422119140625 1.071533203125 146.0921936035156 1.077239990234375 146.0424499511719 C 1.077239990234375 146.0424499511719 1.07855224609375 146.031005859375 1.07855224609375 146.031005859375 C 1.080841064453125 146.0108642578125 1.0831298828125 145.9908599853516 1.08544921875 145.9707183837891 C 1.0860595703125 145.96533203125 1.08721923828125 145.955322265625 1.087860107421875 145.9499206542969 C 1.08978271484375 145.9330139160156 1.09173583984375 145.9161071777344 1.09368896484375 145.8992004394531 C 1.09429931640625 145.893798828125 1.095977783203125 145.8793029785156 1.096588134765625 145.8739013671875 C 1.098388671875 145.8583984375 1.100189208984375 145.8428192138672 1.10198974609375 145.8273162841797 C 1.103240966796875 145.8165283203125 1.103790283203125 145.8117370605469 1.10504150390625 145.8009490966797 C 1.107391357421875 145.7806091308594 1.1097412109375 145.7604064941406 1.112091064453125 145.7400817871094 C 1.11273193359375 145.7346801757813 1.113494873046875 145.7282409667969 1.114105224609375 145.7228546142578 C 1.11651611328125 145.7021179199219 1.118896484375 145.6816864013672 1.121307373046875 145.6609649658203 C 1.122589111328125 145.6501770019531 1.124176025390625 145.6364593505859 1.125457763671875 145.6256713867188 C 1.126800537109375 145.614013671875 1.128173828125 145.6024475097656 1.1295166015625 145.5907745361328 C 1.13079833984375 145.5799865722656 1.13275146484375 145.5634307861328 1.134002685546875 145.5526428222656 C 1.135223388671875 145.5421905517578 1.136444091796875 145.5319671630859 1.137664794921875 145.5214996337891 C 1.138916015625 145.5107269287109 1.141387939453125 145.4899597167969 1.14263916015625 145.4791870117188 C 1.143646240234375 145.4707336425781 1.144622802734375 145.4624633789063 1.145599365234375 145.4540100097656 C 1.14752197265625 145.4378356933594 1.1490478515625 145.4250335693359 1.15093994140625 145.4088592529297 C 1.151641845703125 145.4030303955078 1.152374267578125 145.3967132568359 1.153076171875 145.3908843994141 C 1.16009521484375 145.3315887451172 1.166473388671875 145.2780303955078 1.173553466796875 145.21875 C 1.17388916015625 145.2159423828125 1.174224853515625 145.213134765625 1.174560546875 145.2103118896484 C 1.1771240234375 145.1887664794922 1.178741455078125 145.1754608154297 1.181304931640625 145.1539001464844 C 1.1817626953125 145.1500854492188 1.182220458984375 145.1463165283203 1.18267822265625 145.1424865722656 C 1.185272216796875 145.1209411621094 1.18682861328125 145.1078186035156 1.189422607421875 145.0862731933594 C 1.1898193359375 145.0830535888672 1.190155029296875 145.0803527832031 1.190521240234375 145.0771331787109 C 1.223602294921875 144.8023834228516 1.25604248046875 144.538330078125 1.290435791015625 144.2640075683594 L 9.211639404296875 145.2572021484375 L 9.211639404296875 135 Z M 7.71142578125 115.0006408691406 L 36.30398559570313 124.0816421508789 C 35.4827880859375 126.6673583984375 34.73748779296875 129.286865234375 34.07070922851563 131.9375762939453 L 4.977081298828125 124.6190032958984 C 5.069244384765625 124.2527008056641 5.16241455078125 123.8875885009766 5.25701904296875 123.5222625732422 C 5.25799560546875 123.5185089111328 5.258880615234375 123.5150833129883 5.25982666015625 123.5113296508789 C 5.265167236328125 123.4907531738281 5.268341064453125 123.4785232543945 5.273681640625 123.4579467773438 C 5.2745361328125 123.45458984375 5.275543212890625 123.4507751464844 5.276397705078125 123.4474182128906 C 5.29107666015625 123.3908233642578 5.301788330078125 123.349609375 5.3165283203125 123.2930450439453 C 5.319061279296875 123.2833709716797 5.321563720703125 123.2737884521484 5.324066162109375 123.2641143798828 C 5.328094482421875 123.2486877441406 5.32904052734375 123.2450408935547 5.33306884765625 123.2296142578125 C 5.3363037109375 123.2171783447266 5.33953857421875 123.2048568725586 5.3427734375 123.1924209594727 C 5.345458984375 123.1821441650391 5.34808349609375 123.1720886230469 5.35076904296875 123.1618041992188 C 5.3544921875 123.1475982666016 5.35821533203125 123.1333694458008 5.3619384765625 123.1191558837891 C 5.36328125 123.1140213012695 5.367401123046875 123.0982208251953 5.368743896484375 123.0930786132813 C 5.38104248046875 123.0461120605469 5.3934326171875 122.9988403320313 5.405792236328125 122.9518890380859 C 5.405792236328125 122.9518890380859 5.408599853515625 122.9412231445313 5.408599853515625 122.9412231445313 C 5.414031982421875 122.9205093383789 5.41949462890625 122.8997650146484 5.424957275390625 122.8790512084961 C 5.426300048828125 122.8739166259766 5.426910400390625 122.8715438842773 5.42828369140625 122.8664093017578 C 5.433868408203125 122.8451080322266 5.439544677734375 122.823600769043 5.445159912109375 122.8023071289063 C 5.446533203125 122.7971649169922 5.44573974609375 122.8000869750977 5.447113037109375 122.7949523925781 C 5.81951904296875 121.3833923339844 6.21014404296875 119.9791946411133 6.618743896484375 118.5827102661133 C 6.618743896484375 118.5827102661133 6.620819091796875 118.5755767822266 6.620819091796875 118.5755767822266 C 6.62744140625 118.5529479980469 6.6341552734375 118.5301055908203 6.640777587890625 118.5074768066406 C 6.640777587890625 118.5074768066406 6.64208984375 118.5030059814453 6.64208984375 118.5030059814453 C 6.65655517578125 118.4536514282227 6.671112060546875 118.4041061401367 6.68560791015625 118.3547821044922 C 6.68560791015625 118.3547821044922 6.68560791015625 118.3547668457031 6.68560791015625 118.3547668457031 C 6.6922607421875 118.3321533203125 6.69891357421875 118.3095626831055 6.70556640625 118.2869491577148 C 6.707061767578125 118.2818756103516 6.70941162109375 118.2739562988281 6.710906982421875 118.2688827514648 C 6.71600341796875 118.2515335083008 6.721221923828125 118.2338714599609 6.726348876953125 118.2165222167969 C 6.72784423828125 118.2114410400391 6.730682373046875 118.2017974853516 6.732177734375 118.1967163085938 C 6.737548828125 118.1785888671875 6.742919921875 118.160400390625 6.748291015625 118.1422805786133 C 6.749786376953125 118.13720703125 6.751434326171875 118.1316375732422 6.7529296875 118.1265640258789 C 6.759735107421875 118.1035690307617 6.76641845703125 118.0809783935547 6.773223876953125 118.057991027832 C 6.77471923828125 118.0529174804688 6.777374267578125 118.0439529418945 6.77886962890625 118.0388793945313 C 6.783660888671875 118.022705078125 6.788482666015625 118.0065383911133 6.79327392578125 117.9903717041016 C 6.7962646484375 117.980224609375 6.79925537109375 117.9701385498047 6.802276611328125 117.9599914550781 C 6.8060302734375 117.9473342895508 6.80975341796875 117.9347991943359 6.81353759765625 117.9221343994141 C 6.8165283203125 117.911994934082 6.819915771484375 117.900634765625 6.82293701171875 117.8904876708984 C 6.8265380859375 117.87841796875 6.830108642578125 117.8663635253906 6.833709716796875 117.8542861938477 C 6.838226318359375 117.8390655517578 6.839324951171875 117.8354034423828 6.843841552734375 117.8201904296875 C 6.846649169921875 117.8108520507813 6.849578857421875 117.8009719848633 6.85235595703125 117.7916259765625 C 6.8614501953125 117.7611999511719 6.871856689453125 117.7262954711914 6.880950927734375 117.6958770751953 C 6.88116455078125 117.6950988769531 6.88128662109375 117.694709777832 6.88153076171875 117.6939239501953 C 6.886077880859375 117.6787261962891 6.89141845703125 117.6607666015625 6.895965576171875 117.6455612182617 C 6.897735595703125 117.6397247314453 6.899627685546875 117.6334075927734 6.9013671875 117.6275634765625 C 6.907440185546875 117.6072845458984 6.909698486328125 117.5997161865234 6.915771484375 117.5794372558594 C 6.917236328125 117.5745697021484 6.918731689453125 117.5695953369141 6.920166015625 117.5647277832031 C 7.176849365234375 116.7082977294922 7.441314697265625 115.8511657714844 7.711456298828125 115.0006561279297 Z M 19.35171508789063 87.39635467529297 L 45.8157958984375 101.5262145996094 C 44.53485107421875 103.9252166748047 43.32437133789063 106.367431640625 42.18701171875 108.8501434326172 L 14.91278076171875 96.35556793212891 C 15.97747802734375 94.03142547607422 17.09469604492188 91.73603820800781 18.2626953125 89.47144317626953 C 18.2626953125 89.47144317626953 18.26589965820313 89.4652099609375 18.26589965820313 89.4652099609375 C 18.27679443359375 89.44407653808594 18.2877197265625 89.42292785644531 18.29861450195313 89.40180206298828 C 18.29861450195313 89.40180206298828 18.30075073242188 89.39768981933594 18.30075073242188 89.39768981933594 C 18.32415771484375 89.35237121582031 18.3477783203125 89.30668640136719 18.3712158203125 89.26139068603516 C 18.3712158203125 89.26139068603516 18.37298583984375 89.25794219970703 18.37298583984375 89.25794219970703 C 18.38363647460938 89.23736572265625 18.39431762695313 89.21677398681641 18.40496826171875 89.19620513916016 C 18.40496826171875 89.19620513916016 18.41058349609375 89.18534851074219 18.41058349609375 89.18534851074219 C 18.42068481445313 89.16586303710938 18.43099975585938 89.14596557617188 18.44113159179688 89.12648773193359 C 18.44113159179688 89.12648773193359 18.444580078125 89.11979675292969 18.444580078125 89.11979675292969 C 18.46798706054688 89.07469940185547 18.49139404296875 89.02962493896484 18.51483154296875 88.98455810546875 C 18.51483154296875 88.98455810546875 18.51705932617188 88.98025512695313 18.51705932617188 88.98025512695313 C 18.52764892578125 88.95988464355469 18.5382080078125 88.93959808349609 18.548828125 88.91923522949219 C 18.548828125 88.91923522949219 18.55429077148438 88.90872955322266 18.55429077148438 88.90872955322266 C 18.56460571289063 88.88890838623047 18.57492065429688 88.86911773681641 18.58523559570313 88.84929656982422 C 18.58523559570313 88.84929656982422 18.58859252929688 88.84287261962891 18.58859252929688 88.84287261962891 C 18.61187744140625 88.79818725585938 18.63531494140625 88.75326538085938 18.65866088867188 88.70861053466797 C 18.65866088867188 88.70861053466797 18.66220092773438 88.70181274414063 18.66220092773438 88.70181274414063 C 18.67245483398438 88.68218231201172 18.68280029296875 88.66237640380859 18.69308471679688 88.64275360107422 C 18.69308471679688 88.64275360107422 18.69882202148438 88.63176727294922 18.69882202148438 88.63176727294922 C 18.70889282226563 88.61250305175781 18.71920776367188 88.59281158447266 18.72927856445313 88.57355499267578 C 18.72927856445313 88.57355499267578 18.7332763671875 88.56593322753906 18.7332763671875 88.56593322753906 C 18.75656127929688 88.521484375 18.78005981445313 88.47662353515625 18.80337524414063 88.43218994140625 C 18.80337524414063 88.43218994140625 18.8070068359375 88.42527770996094 18.8070068359375 88.42527770996094 C 18.81741333007813 88.40548706054688 18.82785034179688 88.38556671142578 18.8382568359375 88.36578369140625 C 18.8382568359375 88.36578369140625 18.84329223632813 88.35622406005859 18.84329223632813 88.35622406005859 C 18.853759765625 88.33626556396484 18.86410522460938 88.31659698486328 18.87460327148438 88.29664611816406 C 18.87460327148438 88.29664611816406 18.878173828125 88.28983306884766 18.878173828125 88.28983306884766 C 18.9017333984375 88.24507141113281 18.92526245117188 88.20039367675781 18.9488525390625 88.15565490722656 C 18.9488525390625 88.15565490722656 18.95169067382813 88.15028381347656 18.95169067382813 88.15028381347656 C 18.96237182617188 88.12998199462891 18.9730224609375 88.10984039306641 18.98373413085938 88.08954620361328 C 18.98373413085938 88.08954620361328 18.98873901367188 88.08005523681641 18.98873901367188 88.08005523681641 C 18.99935913085938 88.0599365234375 19.00994873046875 88.03990173339844 19.02056884765625 88.01979064941406 C 19.02056884765625 88.01979064941406 19.02337646484375 88.01448822021484 19.02337646484375 88.01448822021484 C 19.04727172851563 87.96923828125 19.07131958007813 87.92381286621094 19.09527587890625 87.87859344482422 C 19.09527587890625 87.87859344482422 19.09585571289063 87.87747955322266 19.09585571289063 87.87747955322266 C 19.10726928710938 87.85594177246094 19.11856079101563 87.83462524414063 19.12997436523438 87.81309509277344 C 19.12997436523438 87.81309509277344 19.13409423828125 87.80533599853516 19.13409423828125 87.80533599853516 C 19.14523315429688 87.78433990478516 19.15640258789063 87.76325988769531 19.16754150390625 87.74227905273438 C 19.16754150390625 87.74227905273438 19.1689453125 87.73964691162109 19.1689453125 87.73964691162109 C 19.204833984375 87.67202758789063 19.2408447265625 87.60433959960938 19.27682495117188 87.53677368164063 C 19.27682495117188 87.53677368164063 19.27999877929688 87.53079986572266 19.27999877929688 87.53079986572266 C 19.29156494140625 87.50910949707031 19.30316162109375 87.48735809326172 19.31472778320313 87.46567535400391 C 19.31472778320313 87.46567535400391 19.31512451171875 87.46489715576172 19.31512451171875 87.46489715576172 C 19.32736206054688 87.44197082519531 19.3394775390625 87.41928100585938 19.35171508789063 87.39635467529297 Z M 35.80307006835938 62.35849761962891 L 59.28042602539063 81.03514099121094 C 57.58242797851563 83.16950225830078 55.94772338867188 85.35649871826172 54.37905883789063 87.5931396484375 L 29.8175048828125 70.36728668212891 C 31.73495483398438 67.6331787109375 33.72744750976563 64.96750640869141 35.8031005859375 62.3585205078125 Z M 56.4949951171875 40.69214630126953 L 76.23214721679688 63.28521728515625 C 74.1749267578125 65.08235931396484 72.17263793945313 66.94092559814453 70.2281494140625 68.85792541503906 L 49.16656494140625 47.494140625 C 49.53741455078125 47.1285400390625 49.90988159179688 46.76479339599609 50.28414916992188 46.40268707275391 C 50.287841796875 46.39910125732422 50.28076171875 46.40597534179688 50.28445434570313 46.40239715576172 C 50.358154296875 46.33110046386719 50.43161010742188 46.26015472412109 50.50543212890625 46.18899536132813 C 50.5091552734375 46.18541717529297 50.50985717773438 46.18473052978516 50.51358032226563 46.18115234375 C 50.52984619140625 46.16548156738281 50.54592895507813 46.14997100830078 50.56219482421875 46.13430786132813 C 50.56591796875 46.1307373046875 50.56326293945313 46.13328552246094 50.56698608398438 46.12970733642578 C 50.60333251953125 46.09471130371094 50.63967895507813 46.05974578857422 50.676025390625 46.02478790283203 C 50.676025390625 46.02478790283203 50.68310546875 46.01799011230469 50.68310546875 46.01799011230469 C 50.69778442382813 46.00389099121094 50.7125244140625 45.98973846435547 50.7271728515625 45.97564697265625 C 50.734619140625 45.968505859375 50.7344970703125 45.9686279296875 50.741943359375 45.96148681640625 C 50.75558471679688 45.94838714599609 50.76953125 45.93500518798828 50.78317260742188 45.92191314697266 C 50.78689575195313 45.91834259033203 50.79010009765625 45.91526031494141 50.7938232421875 45.91168975830078 C 50.81085205078125 45.89535522460938 50.82754516601563 45.87934112548828 50.8446044921875 45.86301422119141 C 50.8446044921875 45.86301422119141 50.85150146484375 45.85638427734375 50.85150146484375 45.85638427734375 C 50.86663818359375 45.84188842773438 50.88177490234375 45.82738494873047 50.89691162109375 45.81289672851563 C 50.9080810546875 45.80220031738281 50.90826416015625 45.802001953125 50.91946411132813 45.79131317138672 C 50.92840576171875 45.78273010253906 50.93704223632813 45.77448272705078 50.94598388671875 45.76590728759766 C 50.95343017578125 45.75878143310547 50.96453857421875 45.74817657470703 50.97198486328125 45.74104309082031 C 50.98095703125 45.73246765136719 50.99026489257813 45.72356414794922 50.99923706054688 45.71498870849609 C 51.00668334960938 45.70787048339844 51.01510620117188 45.69979858398438 51.0225830078125 45.69268035888672 C 51.0340576171875 45.68171691894531 51.04525756835938 45.67099761962891 51.05673217773438 45.66004180908203 C 51.06793212890625 45.64936065673828 51.08349609375 45.63449096679688 51.09469604492188 45.62380981445313 C 51.10293579101563 45.61594390869141 51.11135864257813 45.60788726806641 51.11959838867188 45.60002136230469 C 51.13079833984375 45.58934783935547 51.13504028320313 45.58530426025391 51.146240234375 45.57463073730469 C 51.1541748046875 45.56705474853516 51.16201782226563 45.5595703125 51.16998291015625 45.55199432373047 C 51.18118286132813 45.54132080078125 51.18853759765625 45.53429412841797 51.19973754882813 45.52362060546875 C 51.20535278320313 45.51829528808594 51.21115112304688 45.51274871826172 51.21676635742188 45.50741577148438 C 51.25408935546875 45.47186279296875 51.29293823242188 45.43489837646484 51.33029174804688 45.39937591552734 C 51.33413696289063 45.39573669433594 51.33786010742188 45.39216613769531 51.34170532226563 45.38852691650391 C 51.35665893554688 45.37432098388672 51.36416625976563 45.36717987060547 51.37911987304688 45.35297393798828 C 51.382080078125 45.35017395019531 51.38497924804688 45.34740447998047 51.387939453125 45.3446044921875 C 53.05865478515625 43.75765228271484 54.759033203125 42.20871734619141 56.49502563476563 40.69216156005859 Z M 80.74699401855469 23.10256958007813 L 96.08778381347656 48.88356781005859 C 93.74043273925781 50.28035736083984 91.43899536132813 51.74636077880859 89.18635559082031 53.27857208251953 L 72.31350708007813 28.47322082519531 C 73.31417846679688 27.79251098632813 74.31771850585938 27.12588500976563 75.33396911621094 26.46676635742188 C 75.33517456054688 26.46600341796875 75.33641052246094 26.46519470214844 75.33760070800781 26.46441650390625 C 75.40708923339844 26.41935729980469 75.472900390625 26.37673950195313 75.54246520996094 26.33177185058594 C 75.54331970214844 26.33122253417969 75.54421997070313 26.33062744140625 75.54507446289063 26.330078125 C 75.56246948242188 26.31884765625 75.57681274414063 26.3095703125 75.59420776367188 26.29833984375 C 75.59591674804688 26.29722595214844 75.59776306152344 26.29603576660156 75.59947204589844 26.29493713378906 C 75.61686706542969 26.28370666503906 75.63064575195313 26.27479553222656 75.64804077148438 26.26358032226563 C 75.64907836914063 26.26290893554688 75.65011596679688 26.26223754882813 75.65113830566406 26.26158142089844 C 75.698974609375 26.23069763183594 75.74726867675781 26.19956970214844 75.79515075683594 26.16874694824219 C 75.80010986328125 26.16555786132813 75.80525207519531 26.16224670410156 75.81021118164063 26.1590576171875 C 75.82327270507813 26.15065002441406 75.83674621582031 26.14198303222656 75.84980773925781 26.13357543945313 C 75.85578918457031 26.12971496582031 75.86199951171875 26.125732421875 75.86798095703125 26.12188720703125 C 75.88104248046875 26.11347961425781 75.89653015136719 26.10353088378906 75.90959167480469 26.09512329101563 C 75.91011047363281 26.09480285644531 75.91043090820313 26.09458923339844 75.91094970703125 26.09425354003906 C 75.94578552246094 26.07186889648438 75.97909545898438 26.05047607421875 76.01396179199219 26.02810668945313 C 76.01412963867188 26.02799987792969 76.01425170898438 26.02792358398438 76.01441955566406 26.02780151367188 C 76.02749633789063 26.01942443847656 76.03961181640625 26.01164245605469 76.05268859863281 26.00326538085938 C 76.06005859375 25.99855041503906 76.0673828125 25.99385070800781 76.07473754882813 25.98912048339844 C 76.08346557617188 25.98353576660156 76.10195922851563 25.9716796875 76.11067199707031 25.96609497070313 C 76.11769104003906 25.96159362792969 76.1251220703125 25.95684814453125 76.13214111328125 25.95234680175781 C 76.14521789550781 25.9439697265625 76.15582275390625 25.93717956542969 76.16889953613281 25.92880249023438 C 76.17420959472656 25.9254150390625 76.17974853515625 25.92185974121094 76.18505859375 25.91847229003906 C 76.21122741699219 25.90171813964844 76.23519897460938 25.88639831542969 76.26138305664063 25.86965942382813 C 76.26702880859375 25.86604309082031 76.27281188964844 25.86235046386719 76.27847290039063 25.85873413085938 C 76.29154968261719 25.85037231445313 76.302001953125 25.84370422363281 76.31509399414063 25.83534240722656 C 76.32211303710938 25.83085632324219 76.32917785644531 25.82635498046875 76.33619689941406 25.82186889648438 C 76.34494018554688 25.81629943847656 76.36410522460938 25.80406188964844 76.37283325195313 25.79849243164063 C 76.38037109375 25.79367065429688 76.38752746582031 25.78912353515625 76.39508056640625 25.7843017578125 C 76.40817260742188 25.77595520019531 76.41873168945313 25.76922607421875 76.43182373046875 25.7608642578125 C 76.43611145019531 25.75813293457031 76.44039916992188 25.75540161132813 76.44468688964844 25.75267028808594 C 76.47088623046875 25.73597717285156 76.49559020996094 25.72024536132813 76.52180480957031 25.70356750488281 C 76.52815246582031 25.69952392578125 76.53472900390625 25.69532775878906 76.54107666015625 25.6912841796875 C 76.55418395996094 25.68295288085938 76.56248474121094 25.67767333984375 76.57559204101563 25.66932678222656 C 76.58401489257813 25.66398620605469 76.59231567382813 25.65869140625 76.60073852539063 25.65335083007813 C 76.60946655273438 25.64779663085938 76.62565612792969 25.63751220703125 76.6343994140625 25.6319580078125 C 76.64334106445313 25.62628173828125 76.65231323242188 25.62057495117188 76.66123962402344 25.61489868164063 C 76.67436218261719 25.6065673828125 76.679443359375 25.60334777832031 76.69256591796875 25.59501647949219 C 76.70252990722656 25.58869934082031 76.71238708496094 25.58244323730469 76.72235107421875 25.57611083984375 C 76.73983764648438 25.56501770019531 76.75971984863281 25.55241394042969 76.7772216796875 25.54132080078125 C 76.78683471679688 25.53521728515625 76.79644775390625 25.52912902832031 76.80607604980469 25.52302551269531 C 76.81919860839844 25.51470947265625 76.82354736328125 25.511962890625 76.836669921875 25.50364685058594 C 76.84613037109375 25.49765014648438 76.85569763183594 25.49159240722656 76.86514282226563 25.48561096191406 C 76.8739013671875 25.48007202148438 76.88702392578125 25.47177124023438 76.89576721191406 25.46623229980469 C 76.90643310546875 25.45948791503906 76.91722106933594 25.45265197753906 76.92788696289063 25.44590759277344 C 76.9366455078125 25.44038391113281 76.94674682617188 25.43399047851563 76.95550537109375 25.42845153808594 C 76.96617126464844 25.42170715332031 76.97660827636719 25.41511535644531 76.98727416992188 25.40837097167969 C 77.00479125976563 25.39730834960938 77.02418518066406 25.38507080078125 77.04170227050781 25.37400817871094 C 77.05097961425781 25.36813354492188 77.06021118164063 25.36231994628906 77.06950378417969 25.3564453125 C 77.07826232910156 25.35092163085938 77.08979797363281 25.34365844726563 77.09855651855469 25.338134765625 C 77.10905456542969 25.33151245117188 77.11921691894531 25.32508850097656 77.12973022460938 25.31846618652344 C 77.13848876953125 25.31294250488281 77.15151977539063 25.30473327636719 77.16029357910156 25.29920959472656 C 77.17010498046875 25.29302978515625 77.17982482910156 25.28691101074219 77.18963623046875 25.28071594238281 C 77.19841003417969 25.27520751953125 77.21025085449219 25.26774597167969 77.21900939941406 25.26222229003906 C 77.23313903808594 25.25332641601563 77.2474365234375 25.24433898925781 77.26155090332031 25.23545837402344 C 77.27470397949219 25.22718811035156 77.28861999511719 25.21842956542969 77.30177307128906 25.21015930175781 C 77.31263732910156 25.20333862304688 77.32371520996094 25.19636535644531 77.33456420898438 25.18954467773438 C 77.34333801269531 25.18403625488281 77.35415649414063 25.17724609375 77.36293029785156 25.17172241210938 C 77.3729248046875 25.16545104980469 77.38284301757813 25.15922546386719 77.39283752441406 25.1529541015625 C 77.401611328125 25.14744567871094 77.41496276855469 25.13905334472656 77.42373657226563 25.13356018066406 C 77.43374633789063 25.12727355957031 77.44375610351563 25.12100219726563 77.45375061035156 25.11473083496094 C 77.4625244140625 25.10922241210938 77.47491455078125 25.10145568847656 77.48370361328125 25.095947265625 C 77.50146484375 25.08482360839844 77.51954650878906 25.073486328125 77.53732299804688 25.06234741210938 C 77.54609680175781 25.05685424804688 77.55911254882813 25.0487060546875 77.56790161132813 25.043212890625 C 77.57772827148438 25.03704833984375 77.58753967285156 25.03091430664063 77.59736633300781 25.02476501464844 C 77.60615539550781 25.01927185058594 77.61871337890625 25.01141357421875 77.62748718261719 25.00592041015625 C 77.63749694824219 24.99966430664063 77.64755249023438 24.99337768554688 77.65756225585938 24.98712158203125 C 77.66635131835938 24.98162841796875 77.67881774902344 24.97383117675781 77.68760681152344 24.96833801269531 C 77.70140075683594 24.959716796875 77.71513366699219 24.95114135742188 77.72894287109375 24.94252014160156 C 77.73333740234375 24.93977355957031 77.74034118652344 24.93539428710938 77.74473571777344 24.93264770507813 C 77.76406860351563 24.92057800292969 77.7835693359375 24.90841674804688 77.80290222167969 24.8963623046875 C 77.81169128417969 24.890869140625 77.81910705566406 24.88626098632813 77.82789611816406 24.88076782226563 C 77.83981323242188 24.87335205078125 77.85200500488281 24.86575317382813 77.86392211914063 24.85832214355469 C 77.87271118164063 24.85284423828125 77.88121032714844 24.84754943847656 77.88999938964844 24.84207153320313 C 77.90158081054688 24.83486938476563 77.91287231445313 24.82783508300781 77.92445373535156 24.82063293457031 C 77.93324279785156 24.81515502929688 77.94198608398438 24.80970764160156 77.95077514648438 24.80424499511719 C 77.96322631835938 24.79649353027344 77.9757080078125 24.78872680664063 77.9881591796875 24.78099060058594 C 78.00135803222656 24.77278137207031 78.01449584960938 24.76461791992188 78.02769470214844 24.75640869140625 C 78.04048156738281 24.74845886230469 78.05328369140625 24.74050903320313 78.06607055664063 24.73255920410156 C 78.07926940917969 24.724365234375 78.08439636230469 24.72119140625 78.09759521484375 24.71299743652344 C 78.10745239257813 24.70687866210938 78.11724853515625 24.70079040527344 78.12710571289063 24.69468688964844 C 78.13591003417969 24.689208984375 78.14631652832031 24.68275451660156 78.15512084960938 24.67729187011719 C 78.16653442382813 24.67021179199219 78.17800903320313 24.66311645507813 78.18942260742188 24.65603637695313 C 78.19822692871094 24.65057373046875 78.20782470703125 24.64462280273438 78.21662902832031 24.63916015625 C 78.22891235351563 24.63156127929688 78.2413330078125 24.62387084960938 78.25361633300781 24.61625671386719 C 78.26683044433594 24.60807800292969 78.27769470214844 24.60134887695313 78.29090881347656 24.59317016601563 C 78.30458068847656 24.584716796875 78.31797790527344 24.57643127441406 78.33164978027344 24.56796264648438 C 78.34486389160156 24.55979919433594 78.34805297851563 24.55781555175781 78.36128234863281 24.54965209960938 C 78.37149047851563 24.5433349609375 78.38192749023438 24.53688049316406 78.39215087890625 24.53056335449219 C 78.40097045898438 24.52511596679688 78.4139404296875 24.51710510253906 78.42276000976563 24.51165771484375 C 78.43211364746094 24.50588989257813 78.44134521484375 24.50018310546875 78.45069885253906 24.49441528320313 C 78.46392822265625 24.48625183105469 78.46995544433594 24.48252868652344 78.48318481445313 24.474365234375 C 78.493408203125 24.46804809570313 78.50346374511719 24.46185302734375 78.51368713378906 24.45555114746094 C 78.53132629394531 24.44467163085938 78.54754638671875 24.43466186523438 78.56520080566406 24.42379760742188 C 78.57559204101563 24.41738891601563 78.58587646484375 24.41105651855469 78.59626770019531 24.40464782714844 C 78.60951232910156 24.39649963378906 78.61695861816406 24.39190673828125 78.63020324707031 24.38375854492188 C 78.63851928710938 24.37864685058594 78.64694213867188 24.37345886230469 78.65525817871094 24.36833190917969 C 78.66409301757813 24.3629150390625 78.68093872070313 24.3525390625 78.68977355957031 24.34710693359375 C 78.69775390625 24.34220886230469 78.7059326171875 24.33717346191406 78.71391296386719 24.332275390625 C 78.72715759277344 24.32412719726563 78.73652648925781 24.31837463378906 78.74977111816406 24.31022644042969 C 78.75688171386719 24.30586242675781 78.7640380859375 24.30146789550781 78.77114868164063 24.29710388183594 C 78.79763793945313 24.28082275390625 78.81620788574219 24.26943969726563 78.84269714355469 24.253173828125 C 78.84843444824219 24.24966430664063 78.85395812988281 24.24627685546875 78.85968017578125 24.24276733398438 C 78.87294006347656 24.23463439941406 78.88481140136719 24.22735595703125 78.89805603027344 24.21923828125 C 78.90534973144531 24.21476745605469 78.91279602050781 24.210205078125 78.92008972167969 24.20573425292969 C 78.92892456054688 24.20033264160156 78.94741821289063 24.18899536132813 78.95626831054688 24.18357849121094 C 78.96372985839844 24.17901611328125 78.97099304199219 24.174560546875 78.97846984863281 24.16998291015625 C 78.99172973632813 24.16188049316406 79.00234985351563 24.15536499023438 79.01560974121094 24.14726257324219 C 79.01959228515625 24.14482116699219 79.02362060546875 24.14234924316406 79.02761840820313 24.13990783691406 C 79.05413818359375 24.12368774414063 79.08843994140625 24.10272216796875 79.11497497558594 24.08651733398438 C 79.11810302734375 24.08460998535156 79.1212158203125 24.08270263671875 79.12434387207031 24.08079528808594 C 79.13761901855469 24.07269287109375 79.15472412109375 24.062255859375 79.16799926757813 24.05415344238281 C 79.17286682128906 24.05117797851563 79.177734375 24.04820251464844 79.18260192871094 24.04522705078125 C 79.19587707519531 24.03713989257813 79.21051025390625 24.0281982421875 79.22378540039063 24.02011108398438 C 79.22918701171875 24.01683044433594 79.23477172851563 24.01341247558594 79.24015808105469 24.0101318359375 C 79.28884887695313 23.98045349121094 79.33615112304688 23.95164489746094 79.38485717773438 23.92202758789063 C 79.38642883300781 23.92106628417969 79.38766479492188 23.92031860351563 79.38922119140625 23.91937255859375 C 79.40251159667969 23.91128540039063 79.42012023925781 23.90058898925781 79.43341064453125 23.89251708984375 C 79.43862915039063 23.88934326171875 79.44364929199219 23.88629150390625 79.44886779785156 23.88311767578125 C 79.462158203125 23.87504577636719 79.479736328125 23.8643798828125 79.49302673339844 23.85630798339844 C 79.49476623535156 23.85523986816406 79.49678039550781 23.85401916503906 79.49851989746094 23.85296630859375 C 79.91499328613281 23.60012817382813 80.32810974121094 23.35183715820313 80.74700927734375 23.10258483886719 Z M 107.7804260253906 10.19136047363281 L 118.1844329833984 38.32949829101563 C 115.6231384277344 39.27657318115234 113.0984954833984 40.29914093017578 110.61328125 41.39464569091797 L 98.51307678222656 13.94314575195313 C 101.5066833496094 12.62358093261719 104.5466613769531 11.39056396484375 107.6303863525391 10.24691772460938 C 107.6353149414063 10.24510192871094 107.6352386474609 10.2451171875 107.6401672363281 10.24330139160156 C 107.65966796875 10.23606872558594 107.679443359375 10.22872924804688 107.6989593505859 10.22151184082031 C 107.7038879394531 10.21968078613281 107.7101440429688 10.21736145019531 107.7150726318359 10.21554565429688 C 107.7328643798828 10.20895385742188 107.7503051757813 10.20249938964844 107.7680969238281 10.1959228515625 C 107.7730255126953 10.194091796875 107.7754974365234 10.19317626953125 107.7804260253906 10.19136047363281 Z M 136.7135009765625 2.415283203125 L 141.8206481933594 31.97735595703125 C 139.1233520507813 32.443359375 136.4535675048828 32.98942565917969 133.813720703125 33.61314392089844 L 126.9156494140625 4.41693115234375 C 128.3733215332031 4.072509765625 129.8276214599609 3.749771118164063 131.2999420166016 3.444290161132813 C 131.3029327392578 3.44366455078125 131.3055725097656 3.443115234375 131.3085632324219 3.4425048828125 C 131.3242797851563 3.439239501953125 131.3443908691406 3.435073852539063 131.360107421875 3.431808471679688 C 131.3660888671875 3.430572509765625 131.3718719482422 3.42938232421875 131.3778533935547 3.428146362304688 C 131.3935699462891 3.424880981445313 131.410888671875 3.421310424804688 131.4266052246094 3.418060302734375 C 131.4331817626953 3.416702270507813 131.4395294189453 3.415390014648438 131.4461059570313 3.414031982421875 C 131.4618377685547 3.410781860351563 131.4767608642578 3.407699584960938 131.4924926757813 3.404449462890625 C 131.5026550292969 3.402359008789063 131.5127716064453 3.4002685546875 131.5229339599609 3.398178100585938 C 131.5438995361328 3.39385986328125 131.5655212402344 3.389404296875 131.5864868164063 3.385086059570313 C 131.5996398925781 3.38238525390625 131.6130218505859 3.379638671875 131.6261749267578 3.376937866210938 C 131.6366577148438 3.374771118164063 131.6467437744141 3.372711181640625 131.6572265625 3.370559692382813 C 131.6711730957031 3.367691040039063 131.6854095458984 3.364776611328125 131.6993560791016 3.361923217773438 C 131.7098388671875 3.359771728515625 131.7141876220703 3.35888671875 131.7246704101563 3.356735229492188 C 131.7412109375 3.353347778320313 131.7576141357422 3.349990844726563 131.7741546630859 3.346603393554688 C 131.7794036865234 3.345535278320313 131.7913360595703 3.343093872070313 131.7965698242188 3.342025756835938 C 131.8179016113281 3.337661743164063 131.8390045166016 3.333358764648438 131.8603363037109 3.329010009765625 C 131.8655853271484 3.32794189453125 131.8604431152344 3.328994750976563 131.8656768798828 3.327926635742188 C 131.8908081054688 3.322799682617188 131.9160461425781 3.317657470703125 131.9411773681641 3.312545776367188 C 131.9411773681641 3.312545776367188 131.9420318603516 3.3123779296875 131.9420318603516 3.3123779296875 C 131.966552734375 3.307388305664063 131.9910583496094 3.302413940429688 132.0155944824219 3.297439575195313 C 132.0208435058594 3.296371459960938 132.0173187255859 3.297088623046875 132.0225524902344 3.2960205078125 C 132.0444946289063 3.29156494140625 132.0666046142578 3.287094116210938 132.0885467529297 3.28265380859375 C 132.0885467529297 3.28265380859375 132.0996551513672 3.2803955078125 132.0996551513672 3.2803955078125 C 133.6299438476563 2.97076416015625 135.1681671142578 2.682266235351563 136.7135009765625 2.415283203125 Z M 165 0 L 165 30 C 162.6811370849609 30 160.3759307861328 30.05821228027344 158.0857086181641 30.17327880859375 L 156.5795745849609 0.2111358642578125 C 156.6662139892578 0.206787109375 156.7530517578125 0.202484130859375 156.8397369384766 0.198272705078125 C 156.8507385253906 0.1977386474609375 156.8583831787109 0.197357177734375 156.8693695068359 0.1968231201171875 C 156.8818054199219 0.19622802734375 156.8940124511719 0.1956329345703125 156.9064483642578 0.195037841796875 C 156.9504089355469 0.192901611328125 156.9858703613281 0.1912078857421875 157.0298461914063 0.189117431640625 C 157.0322265625 0.1890106201171875 157.0344848632813 0.18890380859375 157.036865234375 0.18878173828125 C 158.7740020751953 0.106231689453125 160.5178527832031 0.050567626953125 162.2686462402344 0.02215576171875 C 162.2686462402344 0.02215576171875 162.2688293457031 0.02215576171875 162.2688293457031 0.02215576171875 C 162.2909851074219 0.02178955078125 162.3123931884766 0.0214385986328125 162.3345489501953 0.021087646484375 C 162.3348999023438 0.021087646484375 162.3352508544922 0.021087646484375 162.3355865478516 0.0210723876953125 C 162.3799285888672 0.0203704833984375 162.4229278564453 0.01971435546875 162.4672698974609 0.01904296875 C 162.4677734375 0.01904296875 162.4682159423828 0.0190277099609375 162.4687347412109 0.0190277099609375 C 162.4909057617188 0.0186920166015625 162.5082397460938 0.0184326171875 162.5304107666016 0.0181121826171875 C 162.532470703125 0.0180816650390625 162.534912109375 0.018035888671875 162.5369720458984 0.01800537109375 C 162.5591430664063 0.0176849365234375 162.5732879638672 0.017486572265625 162.595458984375 0.0171661376953125 C 162.5982055664063 0.017120361328125 162.6010131835938 0.01708984375 162.603759765625 0.0170440673828125 C 162.6259307861328 0.0167236328125 162.6389465332031 0.01654052734375 162.6611175537109 0.0162353515625 C 162.6643829345703 0.0161895751953125 162.6675415039063 0.016143798828125 162.6708068847656 0.0160980224609375 C 162.6929931640625 0.0157928466796875 162.7059478759766 0.015625 162.7281188964844 0.01531982421875 C 162.7310485839844 0.015289306640625 162.7337799072266 0.0152435302734375 162.7366943359375 0.0152130126953125 C 162.7588806152344 0.0149078369140625 162.7729339599609 0.0147247314453125 162.7951049804688 0.014434814453125 C 162.7978515625 0.0143890380859375 162.8004455566406 0.0143585205078125 162.8031921386719 0.0143280029296875 C 162.8253631591797 0.0140380859375 162.8384552001953 0.0138702392578125 162.8606262207031 0.013580322265625 C 162.8637237548828 0.0135498046875 162.8667297363281 0.0135040283203125 162.8698120117188 0.0134735107421875 C 162.8919982910156 0.01318359375 162.9080352783203 0.0129852294921875 162.9302215576172 0.0127105712890625 C 162.9319305419922 0.0126953125 162.9335632324219 0.0126800537109375 162.9352874755859 0.0126495361328125 C 162.9574737548828 0.0123748779296875 162.9717407226563 0.01220703125 162.9939270019531 0.0119476318359375 C 162.9968566894531 0.0119171142578125 162.9999389648438 0.011871337890625 163.0028533935547 0.0118408203125 C 163.0250396728516 0.0115814208984375 163.0367584228516 0.011444091796875 163.0589447021484 0.0111846923828125 C 163.0625610351563 0.011138916015625 163.0662536621094 0.0110931396484375 163.0698699951172 0.0110626220703125 C 163.0865173339844 0.0108642578125 163.1070556640625 0.0106353759765625 163.1236877441406 0.0104522705078125 C 163.1279907226563 0.010406494140625 163.1324462890625 0.010345458984375 163.1367340087891 0.0102996826171875 C 163.1533813476563 0.0101165771484375 163.1725921630859 0.009918212890625 163.1892395019531 0.009735107421875 C 163.1940460205078 0.009674072265625 163.1988220214844 0.0096282958984375 163.2036437988281 0.00958251953125 C 163.2202911376953 0.0093994140625 163.2394104003906 0.0092010498046875 163.2560577392578 0.009033203125 C 163.2606964111328 0.0089874267578125 163.2650299072266 0.008941650390625 163.2696838378906 0.008880615234375 C 163.2863159179688 0.0087127685546875 163.3076477050781 0.0084991455078125 163.3242950439453 0.008331298828125 C 163.3282470703125 0.00830078125 163.3319244384766 0.0082550048828125 163.3358764648438 0.0082244873046875 C 163.3525238037109 0.008056640625 163.3719329833984 0.00787353515625 163.3885803222656 0.0077056884765625 C 163.3934020996094 0.007659912109375 163.3980560302734 0.0076141357421875 163.4028625488281 0.007568359375 C 163.4195098876953 0.007415771484375 163.4398956298828 0.0072174072265625 163.45654296875 0.0070648193359375 C 163.4606781005859 0.0070343017578125 163.4649505615234 0.006988525390625 163.4690856933594 0.0069580078125 C 163.4857330322266 0.006805419921875 163.5014953613281 0.0066680908203125 163.5181579589844 0.0065155029296875 C 163.5245208740234 0.0064697265625 163.5305786132813 0.00640869140625 163.5369415283203 0.00634765625 C 163.5536041259766 0.0062103271484375 163.5663909912109 0.006103515625 163.5830383300781 0.0059661865234375 C 163.5899200439453 0.0059051513671875 163.5966644287109 0.0058441162109375 163.6035461425781 0.0057830810546875 C 163.6201934814453 0.005645751953125 163.6323852539063 0.00555419921875 163.6490325927734 0.0054168701171875 C 163.6559143066406 0.0053558349609375 163.6629486083984 0.00531005859375 163.6698303222656 0.0052490234375 C 163.6864776611328 0.0051116943359375 163.6999206542969 0.0050201416015625 163.7165679931641 0.0048828125 C 163.7231140136719 0.0048370361328125 163.7297973632813 0.004791259765625 163.7363433837891 0.0047454833984375 C 163.7530059814453 0.004608154296875 163.7654113769531 0.0045318603515625 163.7820739746094 0.0044097900390625 C 163.7889556884766 0.0043487548828125 163.7959442138672 0.004302978515625 163.8028259277344 0.0042572021484375 C 163.8194885253906 0.0041351318359375 163.8309020996094 0.004058837890625 163.8475646972656 0.003936767578125 C 163.8549652099609 0.0038909912109375 163.8622131347656 0.00384521484375 163.8696136474609 0.0037994384765625 C 163.8862762451172 0.0036773681640625 163.8963317871094 0.0036163330078125 163.9129943847656 0.003509521484375 C 163.9207305908203 0.0034637451171875 163.9282531738281 0.0034027099609375 163.9360046386719 0.00335693359375 C 163.9526672363281 0.0032501220703125 163.9629974365234 0.0031890869140625 163.9796600341797 0.0030975341796875 C 163.9873962402344 0.0030517578125 163.9949951171875 0.00299072265625 164.0027465820313 0.0029449462890625 C 164.0194091796875 0.0028533935546875 164.0300903320313 0.0027923583984375 164.0467529296875 0.0027008056640625 C 164.0541534423828 0.002655029296875 164.061279296875 0.0026092529296875 164.0686798095703 0.0025787353515625 C 164.0853424072266 0.0024871826171875 164.0961151123047 0.0024261474609375 164.1127777099609 0.0023345947265625 C 164.1203460693359 0.0023040771484375 164.1280670166016 0.00225830078125 164.1356353759766 0.0022125244140625 C 164.1522979736328 0.00213623046875 164.1595153808594 0.0020904541015625 164.1761779785156 0.00201416015625 C 164.1847839355469 0.0019683837890625 164.1936950683594 0.001922607421875 164.2023010253906 0.00189208984375 C 164.2189636230469 0.0018157958984375 164.2268218994141 0.00177001953125 164.2434997558594 0.0016937255859375 C 164.2519378662109 0.0016632080078125 164.2601623535156 0.001617431640625 164.2686004638672 0.0015869140625 C 164.2852630615234 0.0015106201171875 164.29638671875 0.00146484375 164.3130493164063 0.00140380859375 C 164.3202819824219 0.001373291015625 164.3274230957031 0.0013427734375 164.3346557617188 0.001312255859375 C 164.3513336181641 0.001251220703125 164.3598937988281 0.001220703125 164.3765716552734 0.00115966796875 C 164.385009765625 0.001129150390625 164.3934326171875 0.0010986328125 164.4018707275391 0.001068115234375 C 164.4129791259766 0.0010223388671875 164.4300689697266 0.0009613037109375 164.4411773681641 0.0009307861328125 C 164.4501342773438 0.0009002685546875 164.4590454101563 0.0008697509765625 164.4680023193359 0.0008392333984375 C 164.4846801757813 0.00079345703125 164.5019378662109 0.000732421875 164.5186157226563 0.0006866455078125 C 164.5236053466797 0.00067138671875 164.5287933349609 0.0006561279296875 164.5337829589844 0.000640869140625 C 164.5560150146484 0.000579833984375 164.5695190429688 0.00054931640625 164.5917510986328 0.0005035400390625 C 164.5945129394531 0.00048828125 164.5973358154297 0.00048828125 164.6000823974609 0.0004730224609375 C 164.6167602539063 0.0004425048828125 164.6318359375 0.000396728515625 164.6485137939453 0.0003662109375 C 164.6548767089844 0.0003509521484375 164.6611328125 0.000335693359375 164.6675109863281 0.000335693359375 C 164.6786346435547 0.00030517578125 164.6903381347656 0.0002899169921875 164.7014617919922 0.000274658203125 C 164.7124786376953 0.000244140625 164.7235717773438 0.0002288818359375 164.7346038818359 0.000213623046875 C 164.7457275390625 0.0001983642578125 164.7528991699219 0.00018310546875 164.7640228271484 0.0001678466796875 C 164.7760772705078 0.000152587890625 164.7886352539063 0.0001373291015625 164.8006896972656 0.0001220703125 C 164.8118133544922 0.0001068115234375 164.8251037597656 9.1552734375e-05 164.8362274169922 7.62939453125e-05 C 164.8465576171875 7.62939453125e-05 164.8568572998047 6.103515625e-05 164.8672027587891 4.57763671875e-05 C 164.8727569580078 4.57763671875e-05 164.8844909667969 4.57763671875e-05 164.8900451660156 4.57763671875e-05 C 164.9267578125 1.52587890625e-05 164.9632873535156 0 165 0 C 165 0 165 0 165 0 Z" stroke="none" fill="#1b3566"/>
      </g>
      <path id="Path_17" data-name="Path 17" d="M165,0V330A165,165,0,0,1,165,0Z" transform="translate(636.655 633) rotate(-45)" fill="#2e9bad"/>
    </g>
  </g>
</svg>
