<svg xmlns="http://www.w3.org/2000/svg" xmlns:xlink="http://www.w3.org/1999/xlink" viewBox="0 0 237.145 141.82">
  <defs>
    <clipPath id="clip-path">
      <path id="o" d="M213.331,75.09c1.585-.7,2.718-5,3.216-6.9H218c-.906,4.3-2.266,10.5-4.666,13.4-.544,19.2-5.074,31.3-10.783,31.3-4.213,0-7.248-4.4-7.248-15.8,0-11.5,2.945-35.5,12.277-35.5C211.156,61.589,213.059,66.19,213.331,75.09Zm-3.851,8c-.725-.6-1.087-2-1.087-4.5,0-2.7.5-4.4,1.268-5.2-.091-4.2-.589-5.7-1.722-5.7-3.216,0-5.889,18.3-5.889,28.1,0,6.6.589,8.1,2.31,8.1C206.581,103.892,208.8,94.891,209.48,83.09Z" style={{fill: "none" ,stroke: "#a0616a" , stroke-miterlimit: "10"}}/>
    </clipPath>
    <clipPath id="clip-path-2">
      <path id="t" d="M193.625,46.688l-1.54,15.8H194.8l-.363,4h-2.718l-2.9,30a30.029,30.029,0,0,0-.181,3.2c0,2.8.588,3.7,1.857,3.7,1.767,0,3.4-3.8,4.078-8.8h1.9c-2.582,16.3-7.067,18.5-9.514,18.5-2.718,0-4.847-3.6-4.847-12,0-1.9.136-4.1.362-6.5l2.719-28.1h-1.5l.362-4h1.5l1.359-13.8Z" style={{fill: "none", stroke: "#a0616a", stroke-miterlimit: "10"}}/>
    </clipPath>
    <clipPath id="clip-path-3">
      <path id="e" d="M162.233,103.592c1.722,0,3.9-2.5,5.346-5.3-.951,11.4-4.213,14.8-7.837,14.8-4.214,0-7.022-4.6-7.022-15.9,0-11.5,2.945-35.6,12.232-35.6,4.032,0,4.983,4.6,4.983,9.6,0,11.6-4.983,20.4-10.42,21.1-.045,1-.09,2.1-.09,3C159.425,101.591,160.648,103.592,162.233,103.592Zm3.081-36.7c-2.265,0-4.53,11.1-5.481,20.6,3.533-.4,6.614-8.1,6.614-16.5C166.447,68.489,166.175,66.89,165.314,66.89Z" style={{fill: "none" , stroke: "#a0616a" , stroke-miterlimit: "10"}}/>
    </clipPath>
    <clipPath id="clip-path-4">
      <path id="m" d="M140.537,71.19c-1.631,0-2.854,4.2-3.534,9.2l-3.08,32.1H127.4l3.307-34.5a21.7,21.7,0,0,0,.136-2.5c0-2.2-.363-4.4-1.359-4.4-1.767,0-2.99,4.3-3.67,9.3l-3.08,32.1h-6.524l4.8-50h6.524l-.5,5.2c1.9-4.8,3.941-5.7,5.526-5.7,2.4,0,4.168,2.4,4.667,8.6,2.174-7.4,4.621-8.5,6.3-8.5,2.9,0,5.029,3.3,5.029,11.3,0,8.1-2.175,20.2-2.175,25.8,0,2.5.453,4.2,1.812,4.2,1.994,0,2.809-3.6,3.806-8.8h1.9c-2.536,16.4-6.025,18.5-8.426,18.5-3.941,0-5.346-5.6-5.346-11.3,0-6.8,2.039-19.1,2.039-25.5C142.168,72.99,141.625,71.19,140.537,71.19Z" style={{fill: "none" , stroke: "#a0616a", stroke-miterlimit: "10"}}/>
    </clipPath>
    <clipPath id="clip-path-5">
      <path id="o-2" data-name="o" d="M114.264,77.59a.587.587,0,0,0,.5.2c2.084,0,5.029-3,6.977-6l.407,2.7a14.612,14.612,0,0,1-8.018,8.3c-.725,18.5-5.255,30.1-10.828,30.1-4.213,0-7.248-4.4-7.248-15.8,0-11.5,3.08-35.5,12.413-35.5C112.361,61.589,114.264,67.089,114.264,77.59Zm-3.9,5.5c-.951-.5-1.223-2.2-1.223-4.2,0-2.8.588-4.6,1.4-5.4-.091-4.2-.544-5.8-1.722-5.8-3.216,0-6.025,18.3-6.025,28.1,0,6.6.589,8.1,2.31,8.1C107.333,103.892,109.643,94.891,110.368,83.09Z" style={{fill: "none", stroke: "#a0616a", stroke-miterlimit: "10"}}/>
    </clipPath>
    <clipPath id="clip-path-6">
      <path id="c" d="M91.116,70.99c0-2.5-.408-4.1-1.268-4.1-2.854,0-5.8,18.3-5.8,29.4,0,6.8,1.087,8.4,3.262,8.4,3.579,0,5.753-4.4,8.019-10.1h1.54c-2.582,9.2-6.433,18.5-12.458,18.5-4.259,0-7.068-4.6-7.068-15.9,0-11.6,2.99-35.6,12.187-35.6,4.032,0,5.029,4.6,5.029,9.2,0,4.9-1.088,7.3-2.4,7.3-.5,0-1.042-.4-1.585-1.2A37.08,37.08,0,0,0,91.116,70.99Z" style={{fill: "none", stroke: "#a0616a", stroke-miterlimit: "10"}}/>
    </clipPath>
    <clipPath id="clip-path-7">
      <path id="l" d="M76.032,42.488l-5.21,54a30.029,30.029,0,0,0-.181,3.2c0,2.8.588,3.7,1.857,3.7,1.767,0,3.4-3.8,4.078-8.8h1.9c-2.582,16.3-7.067,18.5-9.514,18.5-2.718,0-4.847-3.6-4.847-12,0-1.9.136-4.1.362-6.5l4.848-50.1Z" style={{fill: "none", stroke: "#a0616a", stroke-miterlimit: "10"}}/>
    </clipPath>
    <clipPath id="clip-path-8">
      <path id="e-2" data-name="e" d="M55.1,104.692c3.579,0,5.754-4.4,8.019-10.1h1.541c-2.583,9.2-6.434,18.5-12.459,18.5-4.259,0-7.067-4.6-7.067-15.9,0-11.5,2.945-35.6,12.232-35.6,4.031,0,4.983,4.6,4.983,9.6,0,11.5-4.983,20.4-10.42,21.1-.045,1.4-.091,2.8-.091,4C51.842,103.092,52.93,104.692,55.1,104.692Zm2.628-37.8c-2.311,0-4.53,10.7-5.437,20.6,3.489-.5,6.57-8.2,6.57-16.5C58.865,68.489,58.593,66.89,57.732,66.89Z" style={{fill: "none", stroke: "#a0616a", stroke-miterlimit: "10"}}/>
    </clipPath>
    <clipPath id="clip-path-9">
      <path id="w" d="M24.03,62.489l-3.262,34a23.282,23.282,0,0,0-.136,2.5c0,2.3.317,4.4,1.359,4.4,1.767,0,2.945-3.8,3.625-8.8l3.08-32.1H35.22l-3.262,34c-.136,1.4-.227,2.7-.227,3.6,0,2,.454,3.3,1.541,3.3,4.44,0,7.837-22.4,7.837-33.4-.135.7-1.087,1-1.449,1-1.088,0-1.631-2.9-1.631-5.1,0-3.1.906-5.4,2.808-5.4,2.175,0,2.855,4.3,2.855,8.7,0,16-3.67,43.9-12.912,43.9-2.945,0-4.892-2.8-5.436-8.4-2.22,7.2-4.621,8.4-6.433,8.4-2.719,0-4.848-3.6-4.848-12,0-1.9.136-4.1.363-6.5l3.08-32.1Z" style={{fill: "none", stroke: "#a0616a", stroke-miterlimit: "10"}}/>
    </clipPath>
  </defs>
  <title>Asset 1</title>
  <g id="Layer_2" data-name="Layer 2">
    <g id="Layer_1-2" data-name="Layer 1">
      <g>
        <g id="o2-group">
          <g style={{clip-path: "url(#clip-path)"}}>
            <path className="animate10" d="M223,72.055l-2,3-2.309,2.181L217,79.055l-3,2-4-1s-1-3,0-3a3.491,3.491,0,0,0,2-1v3l-.628,2.513L211,83.055v5l-1,6v7l-3,5-4,3-2-1-1-2s-2-4-1-4,0-6,0-6v-5s-1-3,0-4,0-1,1-3,0-2,0-3v-2a14.385,14.385,0,0,1,2-3c1-1,0-2,0-3v-2c0-1,1-2,2-3l2-2h2l3,2v4" style={{fill: "none", stroke: "#a0616a", stroke-miterlimit: "10", stroke-width: "34px"}}/>
          </g>
          <path id="o-3" data-name="o" d="M213.331,75.09c1.585-.7,2.718-5,3.216-6.9H218c-.906,4.3-2.266,10.5-4.666,13.4-.544,19.2-5.074,31.3-10.783,31.3-4.213,0-7.248-4.4-7.248-15.8,0-11.5,2.945-35.5,12.277-35.5C211.156,61.589,213.059,66.19,213.331,75.09Zm-3.851,8c-.725-.6-1.087-2-1.087-4.5,0-2.7.5-4.4,1.268-5.2-.091-4.2-.589-5.7-1.722-5.7-3.216,0-5.889,18.3-5.889,28.1,0,6.6.589,8.1,2.31,8.1C206.581,103.892,208.8,94.891,209.48,83.09Z" style={{fill: "none", stroke: "#a0616a", stroke-miterlimit: "10"}}/>
        </g>
        <g id="t-group">
          <g style={{clip-path: "url(#clip-path-2)"}}>
            <polyline className="animate9" id="tLine-path" points="181 64.055 185 64.055 189 64.055 194.661 64.055 197 64.055" style={{fill: "none", stroke: "#a0616a", stroke-miterlimit: "10", stroke-width: "34px"}}/>
            <path className="animate8" id="t-path" d="M191,41.055l-1.011,6.718A27.861,27.861,0,0,0,189,52.055v7l-1,5v12l-1,5-2,8v14l1,3,1,2h2l2-2,3-3,1.3-5.139.043-3.325.251-4.53" style={{fill: "none", stroke: "#a0616a", stroke-miterlimit: "10", stroke-width: "34px"}}/>
          </g>
          <path id="t-2" data-name="t" d="M193.625,46.688l-1.54,15.8H194.8l-.363,4h-2.718l-2.9,30a30.029,30.029,0,0,0-.181,3.2c0,2.8.588,3.7,1.857,3.7,1.767,0,3.4-3.8,4.078-8.8h1.9c-2.582,16.3-7.067,18.5-9.514,18.5-2.718,0-4.847-3.6-4.847-12,0-1.9.136-4.1.362-6.5l2.719-28.1h-1.5l.362-4h1.5l1.359-13.8Z" style={{fill: "none", stroke: "#a0616a", stroke-miterlimit: "10"}}/>
        </g>
        <g id="e2-group">
          <g style={{clip-path: "url(#clip-path-3)"}}>
            <path className="animate7" id="e-path" d="M155,93.055l.872-.374L162,90.055l2-2,2-4,1-5v-6l1-4-3-4h-2l-2,4s-2,2-2,3-2,6-2,6l-1,6v18l1,4v2l2,1h4l2-2,2-2,1-3,2.979-4.129L171,93.055" style={{fill: "none", stroke: "#a0616a", stroke-miterlimit: "10", stroke-width: "34px"}}/>
          </g>
          <path id="e-3" data-name="e" d="M162.233,103.592c1.722,0,3.9-2.5,5.346-5.3-.951,11.4-4.213,14.8-7.837,14.8-4.214,0-7.022-4.6-7.022-15.9,0-11.5,2.945-35.6,12.232-35.6,4.032,0,4.983,4.6,4.983,9.6,0,11.6-4.983,20.4-10.42,21.1-.045,1-.09,2.1-.09,3C159.425,101.591,160.648,103.592,162.233,103.592Zm3.081-36.7c-2.265,0-4.53,11.1-5.481,20.6,3.533-.4,6.614-8.1,6.614-16.5C166.447,68.489,166.175,66.89,165.314,66.89Z" style={{fill: "none", stroke: "#a0616a", stroke-miterlimit: "10"}}/>
        </g>
        <g id="m-group">
          <g style={{clip-path: "url(#clip-path-4)"}}>
            <path className="animate6" id="m-path" d="M119,66.055l3-2,4-2s-2,2-2,3v3l1,3a3.491,3.491,0,0,0-1,2v3l-1,6-1,7-1,6v6l-1,4v5l6-35-1-3,2-1,3-3h2s2,1,2,2-1,6-1,6v14a22.685,22.685,0,0,0-1,4,43.311,43.311,0,0,1-1,5l-1,7v2h1l1-6,4-28,2-3,3-3h3s2,3,2,5-2,8-2,9v23a1.385,1.385,0,0,0,0,2l1,1c1,1,3,0,3,0l2-4,1-3,1.72-5.181V91.619" style={{fill: "none", stroke: "#a0616a", stroke-miterlimit: "10", stroke-width: "34px"}}/>
          </g>
          <path id="m-2" data-name="m" d="M140.537,71.19c-1.631,0-2.854,4.2-3.534,9.2l-3.08,32.1H127.4l3.307-34.5a21.7,21.7,0,0,0,.136-2.5c0-2.2-.363-4.4-1.359-4.4-1.767,0-2.99,4.3-3.67,9.3l-3.08,32.1h-6.524l4.8-50h6.524l-.5,5.2c1.9-4.8,3.941-5.7,5.526-5.7,2.4,0,4.168,2.4,4.667,8.6,2.174-7.4,4.621-8.5,6.3-8.5,2.9,0,5.029,3.3,5.029,11.3,0,8.1-2.175,20.2-2.175,25.8,0,2.5.453,4.2,1.812,4.2,1.994,0,2.809-3.6,3.806-8.8h1.9c-2.536,16.4-6.025,18.5-8.426,18.5-3.941,0-5.346-5.6-5.346-11.3,0-6.8,2.039-19.1,2.039-25.5C142.168,72.99,141.625,71.19,140.537,71.19Z" style={{fill: "none", stroke: "#a0616a", stroke-miterlimit: "10"}}/>
        </g>
        <g id="o-group">
          <g style={{clip-path: "url(#clip-path-5)"}}>
            <path className="animate5" id="o-path" d="M124,71.055l-2,3-2.309,2.181L118,78.055l-3,2-4-1s-1-3,0-3a3.491,3.491,0,0,0,2-1v3l-.628,2.513L112,82.055v5l-1,6v7l-3,5-4,3-2-1-1-2s-2-4-1-4,0-6,0-6v-5s-1-3,0-4,0-1,1-3,0-2,0-3v-2a14.385,14.385,0,0,1,2-3c1-1,0-2,0-3v-2c0-1,1-2,2-3l2-2h2l3,2v4" style={{fill: "none", stroke: "#a0616a", stroke-miterlimit: "10", stroke-width: "34px"}}/>
          </g>
          <path id="o-4" data-name="o" d="M114.264,77.59a.587.587,0,0,0,.5.2c2.084,0,5.029-3,6.977-6l.407,2.7a14.612,14.612,0,0,1-8.018,8.3c-.725,18.5-5.255,30.1-10.828,30.1-4.213,0-7.248-4.4-7.248-15.8,0-11.5,3.08-35.5,12.413-35.5C112.361,61.589,114.264,67.089,114.264,77.59Zm-3.9,5.5c-.951-.5-1.223-2.2-1.223-4.2,0-2.8.588-4.6,1.4-5.4-.091-4.2-.544-5.8-1.722-5.8-3.216,0-6.025,18.3-6.025,28.1,0,6.6.589,8.1,2.31,8.1C107.333,103.892,109.643,94.891,110.368,83.09Z" style={{fill: "none", stroke: "#a0616a",stroke-miterlimit: "10"}}/>
        </g>
        <g id="c-group">
          <g style={{clip-path: "url(#clip-path-6)"}}>
            <polyline className="animate4" id="c-path" points="92 80.055 92 75.055 92 70.055 92 67.055 90 64.055 87 64.055 86 69.055 83 72.055 83 76.055 82 80.055 82 84.055 81 89.055 81 93.055 81 98.055 82 102.055 83 106.055 83 108.055 85 108.055 87 108.055 91 105.055 92 103.055 94 101.055 94.741 96.04 95 91.055" style={{fill: "none", stroke: "#a0616a", stroke-miterlimit: "10", stroke-width: "34px"}}/>
          </g>
          <path id="c-2" data-name="c" d="M91.116,70.99c0-2.5-.408-4.1-1.268-4.1-2.854,0-5.8,18.3-5.8,29.4,0,6.8,1.087,8.4,3.262,8.4,3.579,0,5.753-4.4,8.019-10.1h1.54c-2.582,9.2-6.433,18.5-12.458,18.5-4.259,0-7.068-4.6-7.068-15.9,0-11.6,2.99-35.6,12.187-35.6,4.032,0,5.029,4.6,5.029,9.2,0,4.9-1.088,7.3-2.4,7.3-.5,0-1.042-.4-1.585-1.2A37.08,37.08,0,0,0,91.116,70.99Z" style={{fill: "none", stroke: "#a0616a", stroke-miterlimit: "10"}}/>
        </g>
        <g id="l-group">
          <g style={{clip-path: "url(#clip-path-7)"}}>
            <path className="animate3" id="l-path" d="M74,38.055l-1,9s1,3,0,5-3,7-2,7,0,8,0,8v6l-1,9-2,9s1,8,0,9,0,7,0,7v3l3-2,3-2,.409-4.17,2.935-2.607L77,95.055v-5" style={{fill: "none", stroke: "#a0616a", stroke-miterlimit: "10", stroke-width: "34px"}}/>
          </g>
          <path id="l-2" data-name="l" d="M76.032,42.488l-5.21,54a30.029,30.029,0,0,0-.181,3.2c0,2.8.588,3.7,1.857,3.7,1.767,0,3.4-3.8,4.078-8.8h1.9c-2.582,16.3-7.067,18.5-9.514,18.5-2.718,0-4.847-3.6-4.847-12,0-1.9.136-4.1.362-6.5l4.848-50.1Z" style={{fill: "none", stroke: "#a0616a", stroke-miterlimit: "10"}}/>
        </g>
        <g id="e-group">
          <g style={{clip-path: "url(#clip-path-8)"}}>
            <path className="animate2" id="e-path-2" data-name="e-path" d="M48,92.055l.872-.374L55,89.055l2-2,2-4,1-5v-6l1-4-3-4H56l-2,4s-2,2-2,3-2,6-2,6l-1,6v18l1,4v2l2,1h4l2-2,2-2,1-3,2.979-4.129L64,92.055" style={{fill: "none", stroke: "#a0616a", stroke-miterlimit: "10", stroke-width: "34px"}}/>
          </g>
          <path id="e-4" data-name="e" d="M55.1,104.692c3.579,0,5.754-4.4,8.019-10.1h1.541c-2.583,9.2-6.434,18.5-12.459,18.5-4.259,0-7.067-4.6-7.067-15.9,0-11.5,2.945-35.6,12.232-35.6,4.031,0,4.983,4.6,4.983,9.6,0,11.5-4.983,20.4-10.42,21.1-.045,1.4-.091,2.8-.091,4C51.842,103.092,52.93,104.692,55.1,104.692Zm2.628-37.8c-2.311,0-4.53,10.7-5.437,20.6,3.489-.5,6.57-8.2,6.57-16.5C58.865,68.489,58.593,66.89,57.732,66.89Z" style={{fill: "none", stroke: "#a0616a", stroke-miterlimit: "10"}}/>
        </g>
        <g id="w-group">
          <g style={{clip-path: "url(#clip-path-9)"}}>
            <path className="animate1" id="w-path" d="M20,59.055v14c0,1-1,7-1,7v10s-2,4-2,5v10l3,2,4-2,2-5,2-6,1-10v-8l1-5,1-4,1-2a.979.979,0,0,1,1,1,22.685,22.685,0,0,1-1,4l-1,10v4s-1,5-1,6v5l-1,5v5l1,3,5-2,1-3,3-6,1-3,1-5,1-8v-14l-1-2a.979.979,0,0,0-1,1c0,1-1.865-.33-1.933.835A11.343,11.343,0,0,1,37,70.055" style={{fill: "none", stroke: "#a0616a", stroke-miterlimit: "10", stroke-width: "34px"}}/>
          </g>
          <path id="w-2" data-name="w" d="M24.03,62.489l-3.262,34a23.282,23.282,0,0,0-.136,2.5c0,2.3.317,4.4,1.359,4.4,1.767,0,2.945-3.8,3.625-8.8l3.08-32.1H35.22l-3.262,34c-.136,1.4-.227,2.7-.227,3.6,0,2,.454,3.3,1.541,3.3,4.44,0,7.837-22.4,7.837-33.4-.135.7-1.087,1-1.449,1-1.088,0-1.631-2.9-1.631-5.1,0-3.1.906-5.4,2.808-5.4,2.175,0,2.855,4.3,2.855,8.7,0,16-3.67,43.9-12.912,43.9-2.945,0-4.892-2.8-5.436-8.4-2.22,7.2-4.621,8.4-6.433,8.4-2.719,0-4.848-3.6-4.848-12,0-1.9.136-4.1.363-6.5l3.08-32.1Z" style={{fill: "none", stroke: "#a0616a", stroke-miterlimit: "10"}}/>
        </g>
      </g>
    </g>
  </g>
</svg>
